<mxfile host="app.diagrams.net" agent="Mozilla/5.0 (Macintosh; Intel Mac OS X 10_15_7) AppleWebKit/537.36 (KHTML, like Gecko) Chrome/130.0.0.0 Safari/537.36 Edg/130.0.0.0" version="24.8.3">
  <diagram name="Page-1" id="GCjTzNht4-xa_0Bdz8f0">
    <mxGraphModel dx="480" dy="305" grid="1" gridSize="10" guides="1" tooltips="1" connect="1" arrows="1" fold="1" page="1" pageScale="1" pageWidth="827" pageHeight="1169" math="1" shadow="0">
      <root>
        <mxCell id="0" />
        <mxCell id="1" parent="0" />
        <mxCell id="EPdt9mlcSUmJVmbG-_K2-1" value="" style="rounded=0;whiteSpace=wrap;html=1;fillColor=#B9E0A5;opacity=50;glass=0;shadow=1;strokeColor=#97D077;strokeWidth=3;" vertex="1" parent="1">
          <mxGeometry x="264.52" y="176.25" width="35.32" height="15" as="geometry" />
        </mxCell>
        <mxCell id="EPdt9mlcSUmJVmbG-_K2-2" style="rounded=0;orthogonalLoop=1;jettySize=auto;html=1;fillColor=#dae8fc;strokeColor=#6c8ebf;shape=flexArrow;entryX=0.563;entryY=-0.013;entryDx=0;entryDy=0;sketch=1;curveFitting=1;jiggle=2;entryPerimeter=0;" edge="1" parent="1" target="EPdt9mlcSUmJVmbG-_K2-3">
          <mxGeometry relative="1" as="geometry">
            <mxPoint x="180" y="80" as="sourcePoint" />
            <Array as="points">
              <mxPoint x="167.18" y="80" />
            </Array>
            <mxPoint x="139.36000000000007" y="110" as="targetPoint" />
          </mxGeometry>
        </mxCell>
        <mxCell id="EPdt9mlcSUmJVmbG-_K2-3" value="" style="rounded=1;whiteSpace=wrap;html=1;fillColor=#DAE8FC;strokeColor=#DAE8FC;opacity=40;dashed=1;strokeWidth=4;gradientColor=none;" vertex="1" parent="1">
          <mxGeometry x="67.18" y="120" width="130" height="180" as="geometry" />
        </mxCell>
        <mxCell id="EPdt9mlcSUmJVmbG-_K2-4" value="&lt;font style=&quot;&quot;&gt;&lt;font style=&quot;font-size: 12px;&quot; face=&quot;Times New Roman&quot;&gt;Spatial Feature Extraction&lt;/font&gt;&lt;/font&gt;" style="rounded=0;whiteSpace=wrap;html=1;fillColor=#DAE8FC;strokeColor=#66B2FF;opacity=60;strokeWidth=2;" vertex="1" parent="1">
          <mxGeometry x="77.18" y="130" width="110" height="30" as="geometry" />
        </mxCell>
        <mxCell id="EPdt9mlcSUmJVmbG-_K2-5" value="&lt;font face=&quot;Times New Roman&quot;&gt;Temporal Feature Extraction&lt;/font&gt;" style="rounded=0;whiteSpace=wrap;html=1;fillColor=#DAE8FC;strokeColor=#66B2FF;strokeWidth=2;opacity=60;" vertex="1" parent="1">
          <mxGeometry x="77.18" y="204" width="110" height="36" as="geometry" />
        </mxCell>
        <mxCell id="EPdt9mlcSUmJVmbG-_K2-6" value="" style="ellipse;whiteSpace=wrap;html=1;aspect=fixed;" vertex="1" parent="1">
          <mxGeometry x="122.18" y="169.75" width="20" height="20" as="geometry" />
        </mxCell>
        <mxCell id="EPdt9mlcSUmJVmbG-_K2-7" style="rounded=0;orthogonalLoop=1;jettySize=auto;html=1;exitX=0;exitY=0.5;exitDx=0;exitDy=0;entryX=1;entryY=0.5;entryDx=0;entryDy=0;endArrow=none;endFill=0;" edge="1" parent="1" source="EPdt9mlcSUmJVmbG-_K2-6" target="EPdt9mlcSUmJVmbG-_K2-6">
          <mxGeometry relative="1" as="geometry" />
        </mxCell>
        <mxCell id="EPdt9mlcSUmJVmbG-_K2-8" style="edgeStyle=orthogonalEdgeStyle;rounded=0;orthogonalLoop=1;jettySize=auto;html=1;exitX=0.5;exitY=0;exitDx=0;exitDy=0;entryX=0.5;entryY=1;entryDx=0;entryDy=0;startArrow=none;startFill=0;endArrow=none;endFill=0;" edge="1" parent="1">
          <mxGeometry relative="1" as="geometry">
            <mxPoint x="131.95000000000007" y="169.75" as="sourcePoint" />
            <mxPoint x="131.95000000000007" y="189.75" as="targetPoint" />
          </mxGeometry>
        </mxCell>
        <mxCell id="EPdt9mlcSUmJVmbG-_K2-9" value="" style="rounded=1;whiteSpace=wrap;html=1;fillColor=#D5E8D4;strokeColor=#D5E8D4;opacity=40;strokeWidth=4;dashed=1;" vertex="1" parent="1">
          <mxGeometry x="217.18" y="120" width="130" height="180" as="geometry" />
        </mxCell>
        <mxCell id="EPdt9mlcSUmJVmbG-_K2-10" value="&lt;font style=&quot;font-size: 12px;&quot; face=&quot;Times New Roman&quot;&gt;Spatio-temporal Unitized Model&lt;/font&gt;" style="rounded=0;whiteSpace=wrap;html=1;fillColor=#d5e8d4;strokeColor=#82B366;strokeWidth=2;opacity=50;" vertex="1" parent="1">
          <mxGeometry x="228.07" y="130" width="111.93" height="30" as="geometry" />
        </mxCell>
        <mxCell id="EPdt9mlcSUmJVmbG-_K2-11" value="" style="rounded=0;whiteSpace=wrap;html=1;fillColor=#d5e8d4;strokeColor=#82B366;strokeWidth=2;gradientColor=none;shadow=0;glass=0;opacity=50;" vertex="1" parent="1">
          <mxGeometry x="227.18" y="206.5" width="112.82" height="50" as="geometry" />
        </mxCell>
        <mxCell id="EPdt9mlcSUmJVmbG-_K2-12" value="&lt;font face=&quot;Times New Roman&quot;&gt;&lt;font style=&quot;font-size: 11px;&quot;&gt;Low-rank&amp;nbsp;&lt;/font&gt;&lt;span style=&quot;font-size: 11px;&quot;&gt;matrices&lt;/span&gt;&lt;/font&gt;" style="text;strokeColor=none;align=center;fillColor=none;html=1;verticalAlign=middle;whiteSpace=wrap;rounded=0;" vertex="1" parent="1">
          <mxGeometry x="235.81" y="238" width="100" height="20" as="geometry" />
        </mxCell>
        <mxCell id="EPdt9mlcSUmJVmbG-_K2-13" value="" style="ellipse;whiteSpace=wrap;html=1;aspect=fixed;" vertex="1" parent="1">
          <mxGeometry x="274.68" y="219.25" width="15" height="15" as="geometry" />
        </mxCell>
        <mxCell id="EPdt9mlcSUmJVmbG-_K2-14" style="rounded=0;orthogonalLoop=1;jettySize=auto;html=1;exitX=1;exitY=1;exitDx=0;exitDy=0;entryX=0;entryY=0;entryDx=0;entryDy=0;endArrow=none;endFill=0;" edge="1" parent="1" source="EPdt9mlcSUmJVmbG-_K2-13" target="EPdt9mlcSUmJVmbG-_K2-13">
          <mxGeometry relative="1" as="geometry" />
        </mxCell>
        <mxCell id="EPdt9mlcSUmJVmbG-_K2-15" style="rounded=0;orthogonalLoop=1;jettySize=auto;html=1;exitX=1;exitY=0;exitDx=0;exitDy=0;entryX=0;entryY=1;entryDx=0;entryDy=0;endArrow=none;endFill=0;" edge="1" parent="1" source="EPdt9mlcSUmJVmbG-_K2-13" target="EPdt9mlcSUmJVmbG-_K2-13">
          <mxGeometry relative="1" as="geometry" />
        </mxCell>
        <mxCell id="EPdt9mlcSUmJVmbG-_K2-16" value="" style="rounded=0;whiteSpace=wrap;html=1;fillColor=#B9E0A5;opacity=50;glass=0;shadow=1;strokeColor=#97D077;strokeWidth=3;" vertex="1" parent="1">
          <mxGeometry x="297.18" y="210.5" width="32.5" height="30" as="geometry" />
        </mxCell>
        <mxCell id="EPdt9mlcSUmJVmbG-_K2-17" value="$$\mathit{B}$$" style="text;strokeColor=none;align=center;fillColor=none;html=1;verticalAlign=middle;whiteSpace=wrap;rounded=0;" vertex="1" parent="1">
          <mxGeometry x="297.18" y="215.5" width="30" height="22.5" as="geometry" />
        </mxCell>
        <mxCell id="EPdt9mlcSUmJVmbG-_K2-18" value="" style="rounded=0;whiteSpace=wrap;html=1;fillColor=#B9E0A5;opacity=50;glass=0;shadow=1;strokeColor=#97D077;strokeWidth=3;" vertex="1" parent="1">
          <mxGeometry x="235.81" y="210.5" width="31.37" height="30" as="geometry" />
        </mxCell>
        <mxCell id="EPdt9mlcSUmJVmbG-_K2-19" value="$$\mathit{A}$$" style="text;strokeColor=none;align=center;fillColor=none;html=1;verticalAlign=middle;whiteSpace=wrap;rounded=0;" vertex="1" parent="1">
          <mxGeometry x="233.3099999999999" y="213" width="33.87" height="27.5" as="geometry" />
        </mxCell>
        <mxCell id="EPdt9mlcSUmJVmbG-_K2-20" value="" style="shape=image;aspect=fixed;image=data:image/png,iVBORw0KGgoAAAANSUhEUgAAAQAAAAEACAYAAABccqhmAAAAAXNSR0IArs4c6QAAHppJREFUeF7tXeuB3DavpdxA4go+p5IkldiuxNpK4lSSTSXZVJDcBqxraKWJRjsSgQPwJWL/5DEUHwfAIQC+huB/joAj0C0CQ7cj94E7Ao5AcAJwJXAEOkbACaBj4fvQHQEnANcBR6BjBJwAOha+D90RcAJwHXAEOkbACaBj4fvQHQEnANcBR6BjBJwAOha+D90RcAJwHXAEOkbACaBj4fvQHQEnANcBR6BjBJwAOha+D90RcAJwHXAEOkbACaBj4fvQHQEnANcBR6BjBJwAOha+D90RcAJwHXAEOkbACaBj4fvQHQEnANcBR6BjBJwAOha+D90RcAJwHXAEOkbACaBj4fvQHQEngIvqwD/j+OFsaO/H8eWiQ/dhCRBwAhCAlaPoYrgfwjS9GvAwfHgXwv/oX6cQ6P89MuxTY2f2e08I838PIbx8C+HvuY5pegnDsJab/+lEwkS30mJOABkFMxv3NP1CTb4bhp8Xo57/+8CwM/ZO1RSRwUwIUwh/LjU90/9zglDhmvxjJ4AEEP/z5cun1cg3s7bFLJ2gt1mqnAnCySEL1qJGnABEcL0tPBv74qZPIdBs3rOhS9HcEoN7DFL0DMo7AQhA3M3sbuwC7ARFiQjWUMJJQQAcUtQJIIIaGT3F61MIs1vvf0UQeJ6m6fcwDM+eU7DF3wlgh+fG4H2Gt9U1q9qel1wCkcHsLfgfjoATQAjBjR5XoMJfrmTw1T0DTBJdEwAZ/jAMXzxxhylPZV95mAAIpDsC+Gccf3kXwkeP6QFtaeSTIYSv30J4cq8gLrBuCIAMfwiBZvt1400cHS/ROgIUInx2IjgW4+UJgHbfDSH85obfui3j/XePoFMC+Gccx2XWx7WnvS8f7ulfhpHqHEETKE0hPH3P93jCcCOtS3oADbv78844OoBDMpoP4dABHPp7PYRzZ9ypXNvNScJXwqCDScMw/zsdTFq2N9N/roTS0u5HDwuuTAC1z/rkjs7GPU2vh2Yusrnl7hTjMFDYRYedqiUI9wZeWeBSHsC/4/hHJbH+8+0Y7esR2q53sJFHtkw6tAKzehBHR5uzhROeG7gIAZRO9C2KNLvr75+e5hne/+IILMRAqzOrt1AilOg6JGjeAyhh/LPBkwvf+cweN3FZiVsYEcJKCrmWbOmo8q+pcioyFPKWbp4AMrn9vsssr17OrWX2ELr0BJomgJTG77N8AYuPNLlZ3UmSP6DE4PtxHOsbeboeNUsAyz5+2uBj+ufZYVM4k1WW6hzHNE2fe8rjNEkAS9z/l6F2vUzT9NST4A2xK1pVgj0fXeUDWiUAqx1+FPeR2+fnyouasb5xy0NePYUCzRGA1ezfm6unN7E2alg8AgoNVUuKUwg/9bAq0CIBaGf/LrO9bZivXS//bxx/0xz57sULaI4A/h3HCVUTn/XlyC1r859oB9/yQEgzh2mU3sDLj+P4kxyxtr5oigA0+/x7YXRL9VsMiLZXb/8oSUZn7JvIm6h0poMVgaYIQLHu//zjOP5qaRwl6topMxni76nWrSOG09TsiJIA7QX5YRw/l5B1rjabIQBF8q8pZX0k+LPtztaezdIWzfqnSbRl62wTXgBhik4eV08GtkQAUPLP2kByMfPazoEbfueSW8WqkpmytXwKunGstXFK9bMZAkAZ/Mf5UqA2/7gGqZ2NkQNVLc6M/44jbR4TLQ9ePQxowjhQ97/V2Z/rhq+0pjFGhofxhj0bxhX1Ii+7J6AVAsAE12AWlzvrb6wSTnACbdGbfc0emEHIjnC+chhwZQJoKvmHuOF0RyAS/6NttbT8dxT0eRhwj0wTBIBs/mlppgJnJmjmR2b979esQW3VmHkBxx9aziWdyaF6AoDj/0bcf0QhEXIDZ/2mXf6DJVW6bWi/uSnKVZo8S7TyggVaIAAo/q+dsUGDhHbhgR7GZY/FImEAQroF7ZrddPUEAC7/QbExGzVlQcQg0eWoXB6GEpKsn4MHhS4TBm3BrpoAYPe/4kw1ZJBAOJPTw8hqvQaNIQQ8rwZc8Ihw7QRwmXhNYZDi22rBXW+XnOEsVwOuuBxYOwEg8X917j9ikEjMCZLM5RJ9HCcBCS3RMIzTn1JlqiYAREiI4aQCHzRIT/SlEsimXoSUr7QcukJRLQG0Hv+Dl1FAbjiUV6g4T5LB/uc3B3w5sOKnwVAB1bD8l8sgc3oYOYwydxvgciDlZJo5Bh3DtGYPoLn4P6dBugsbU+347wtRi94lrCnEjI8wXqJaAmgt/gc9FrHLD5JMl4m+uPrfl9i8TUg/bB8tpf9ejxGLZSbtR87yNROA+PLPUuyc0eUnpZReeX3ZHX05DWV+p3CaPoRh+JDqGrac46k6CahIAGaNz8DZGM3yi0OiUoRYQpG9TQyBKj0AZEZFj8ZisIWAxODIOnJOkkGx8O/aRaBKAkDi/5xrtEj/kGu7cuUV2lVf77kWgVoJoMr4X3pV1yIcKAZHjP+KW1W1Cu7fnyNQHQHUGv8jLr8mBhd6Gf7cmVs6hEB9BPDly6dhGCjTLfpLuQEImI2hRN92wNxbkDQkIwLYC18SgfoIYJzv8f4iRDvpASDpbGzxChGDANQkI8TYi18QgeoIQGhss0hSz4IMYzTvx9mlFchqwgV114dkgECNBFBdApBBSuaz8foq784bMm/HQIe8ioYRqIoAGk0AJt0autmB9nKlQygN28ylul4XAWAJwKTxP0n7ZDZO9jrvpbQs8WBuJLm2Mwzzvv13Ifxv3/S3EP6+/b9pegnD8LL8NxHs+u+Je1xP9YcEQMtetO+ZQJyY76kNIbwsANNxSTGgte8AnIlgmn4hpfHZOL8SzzpJhj0MdIKPcj+/SN/6i/SaCOBFq8eWyNyR2ytZzSRlRVZvCABZ7z4YsHhtmhFrv2kqdQLQUphelwyB1eCHYfhIp/NkX5uWJl3+k3abIhObpicnm8+oT/RMm+pughsBgHvOo2OT7E7jZtu3jToBREXQVAEyeprhpxDm2b7Sv5UQvlrNxLFxHq0K0YrQt1cigMKXGwEgs2+s0+vvHBKoNQHIHaOXwxFoxOiPBvg8TdPvYRieUSPkIndyzRy03ZzanQkAjL25/aZy0Q6CoUfyBKBkkF6WjwAp87sQPiaI4/mdsC9p4pafdevIU0c94QGdeaXYxToIkpATgFQQhcsvsxjt9CwZ06dGIblX8MhekIdLiACQrbcQgGcdREKQGKlAnQQ+WpYJ6cvXa6Po5pj1b1mSov/cL0s9WF3577v7fhz9f6C3h5+8TNP09P7p6atlpWtdi4dXOpmXYmhndSYlgge2K96TMoDvpEFARgigih2At3vhViNelkJnu3418K0x5jBMCGvpR5w8jbROKt/JjB+DZibXFHmChQSIWGddlB6KG5DMe2y0R78fKRkahkgv2bit41MH7/c47A0bHWKT30lx5Awy1aoSp+2KyyTJEWyTg9IwIC8BHDxGARy3nWV8xHbbDSObWfsys7Wlgicy/mxhpSUWuerSLt096udKAtIwLisB0EaKZUPF3Ri+v9BCO7ukSaE5AbguIS0uuvXOsFw6UaQda+MHX0MqMvYaGiWP2DIsWMNXyeag3ARQA+7eh9dl2c8SRYmBhiRxY3V28rt4x6wlLkQAfxnvp7bsn9dlj4Cp8VeQ5Hu+7d3/73DPbVfcdnPOm9WaV2xnz3PxQovlglIlYWPqk3UVINYZ/z09ApZuP7h5SzPIV2Ofpj8tXed9h+YDOPcvA2XJH9Gy9vfJONv24pn4CghRowD+rQIBS+PP5fLPCbPEBh+DNPOuxawhwboT8A8PA2Jq0PbvVpumcizvrUafalOSRpKbkCdpuGBJ1mfjzXUWQIO5f6tEwOoOQXS/Brf71llxbrtoudSrHjnyAllOA6IA+3cmCIi3hz5qFd2rwRhB0i3IjPbVRVISgZXndjTIuwtBcm4LVqN+jQo4Z7g5ZR6iQQmzH8bxsxaqRMbfvOE/Sh4ul7hK97SciiglCby9EWgckSeotTpW+/fzrStkUGtH56vPaNlp/fvvbjn6P3dGm/qceErwUhh/SoVOiQW37iWxTicezVYPUq0QHN8JuHkP/dHlinswNifbOIPmlOHirSlH97/Nxj1nmmcrt793TdPBkt8mMP6sGe6S2FHbi0dttjs1BXFmvRU4gUJxZbxdP54vVmx5VuYOWlPOWFamm48048r9rXV+wJoEshFA6gzyVrA1rB3nVjTL9oxlZZKEtBxfibos792wJIFsBJBy44gbvJ1KWxq/paLajbBcTZbegNUSYRYCSGH8NW8WKadiupZPrqCWVtytyx8DyhBjuqDmJ20om5wALF2fOUenvAY5JqCefzcianf5GUpktOQevWw31pWkBGDpTlrtZosB0uvvRkTtxi9QIAvMtRNiagJQ3wyjHaBAHt0WNcr4u/EDGmRBAppcSzICsJj9cx2IAOR2mU8s5OTemU4djEgAygekJADN7O9JJJ1Osb82iPt95mejfVzQgASgfEASAlDOKtBADGTQXRUGSufGb6g1WnkgoUAqAoBn/xxu/4P35M2fXTbUiyRVKUma+uTGn0AyBiQgCgWSEAD61oDV5oa9XDaPT3L2ZRd7CjqBPh1WqVQ0f5ItobCUYZnIgzYnAMXMYj6jGJzKSvaiS0L9iVatkNFcdw4vLTqIixfQXNYrCQVSEADk/lvsalp1IsFNtUledCmlwyrlmqbPNV7VVQrLVO1qdwxy7cmcAED3xWz2V7q2p/JMdSY7lRI9qleDjy/35ZTU/K4iNJlSL7mySkEAyCOfv1o8UgGSj1SqTZ9pR/MzdISaXmKSguXldQhodJrjBZgSABhbmiiWBihARKJEC1B/kk80M4rH/UlEEq1UEwpwvABbAvjy5dMwDL9FR3VfQO3+Gx2sEHVbkmgRVZywMDr7tzjWhDBmr1pJ3KfLgsUJQKtcGnC0ktT2Xdu+5HsFTiYemqSvnLKbZ77uimuPx3LaLlEGTdzGvABbAgCSFhrXEgw5TOXHibNMGwQrQxWoNpJjeHtN52iOxKu5TORMR5smgMxx/5Fs1CEMaNPsz64y+wsIv3qZsIW3KYjK8YzETQmAwc5vxo3OoAJlQLAWfYOOQdSIorBi9jdZnVF0/e5TiQHULhMEE01C8AgPUwJAZuQf56VO+R9CNvJW2F9UO+MoiLK62F9CZKm2lbM1IlFBCQluu3CEB2R8R2PLRQAKpb51fXOR6AeLt+FrnXGsFSaRXkerBWReLSlHB3tSQOEFPMSjVQKAd0idxUOahxxqnXHApb/qZn+EyGolZQ0B0Leo9/sIjyYJQAFANKZFFI2EEltu0Qod+R6YNedmaiQzROY1jgOR4/4bWK4hPL0fx3FbX5MEIIkF18FKlrNAErjErFnrll/Ek6mRlC0IgOpAbODRHQ6tEoD4vIE02YgonLQNK2U4ycmIcZIQZer+r/WjM16tZGaB23LUXbrr9s1bAs0RAKgM4tkZYdiaYk4QJ5PHJiwUfFsH6JG9hjMGj2dYj8eqPkhHd8e5uyAAxBWEYs6KlA00GjFRWinzWT3I6hIS+uUYi2UbiI7uw4AuCAC5vw5RuppmG7D/b5JElgqL1IV6Mpu2TJYDaSvuuxA+TiHcPW0/hPAyPy0/DM+5zyGg7zls9bQ5AlgSIOLYVhqft54DQPpfE4Hd4n/shOkd12jHxYy3i5xBgMKAjafaKgH8FXZMHJtdJEoAMms17jM4a1bTf6v4/xYGKK8x4xpZiWVHrafXDQFQRng5eUhXgJ/+cQW+q6QaA0LifyRPEsPR4nfEk9m3qxmbkExNwg0JboistyFxkwQAJj9YLwsjjLpkm6uJn5ExXGz5740NSTxAjQeCtiMx+l3/fvm+lf0P6fdrSNwkAYAu+orRw6u+mXHeIc6aew2kwouVRzyY3IobGwP9Ds5uD6tG5SMlU423wcHkURmNvJskgCURKM4DHABMIcFdZhcQRDXu/4KNNElaVf9X/AXG9/zdraVHX84IWuyhCd3/W9u5yVSA07aP87b4ZgnAcnYADP7uk5rcZ1Bps8euMcwF45gfkmW4weIxojqWWx+QkHhNWDZLAMZeQEwfz36vavZEwqPcCssBmzuOte8cN1g6MyOGtY5N2hYHk6MySPi6hipNEwDK0Bqw99/WZjwIJrWNQRL/r7E9x1ily3SaFYicmHLJcqu7lyCACryAqmZ/ieFslQFNkFkS6b4uzoy+PezDnAXZYQBiVA8mB9FLvSiegnBp28SMRdMewKLwdKMPLYNoE3li/Cs1HMLiNCFWSlG5AHMVej/LcmZsrmuOeFIlvUMmYW67OE9ezRPAZtb7mJMEajT+xSMSE4B0mzTXkNFyXOPby4BjBNwwgEMmjPGxN58x6jotwhn7vgKS+yUIIDcJcJVIK1Tke2RJqDYCYI7hTfjFIQ7OOj3XA+HIJ5euMDG76/KlCGAhAdoVRZckJAsHap35V8kCM8FhHmNzAk4UUnAMYykzL+HtT9FxZt9HSTZu3B4jPA6RUP6BqWc0xt8FmBwV/Xp22hAhAAqHLuMBrKgpbk2NyYhOe9FmEtp0Uu2fFQFYzoIRsO7cZG67RzMrZ/yxPACzDkqgJZ1sHuQUDu+05KyCPMr9XI4AbkTweoz0C5Olz3R03jr8/unpa7VWv+kYZ/bcjeOhB8CcBU0g2Rozt92jWZxjCGdLdEwCmjHjtGUC0FLJWTiB9OWSHsAe8GV5aE0QskOD9d2AVgx/EwJItwE/XBrjGqKRgt+8AKYre7icp10O5Ix7JZCE3uZDWBMQQPvLgBIF3N3qspIB/ZP2RM/HhEvd7iIZx1lZwAOogQDmq8jpVp0hBDrjcfoX22TDdOEfrtFzCGibB0Jm3tj4jn53AkCR6+g7jvIzQwDomKkCasqx/DmEQGHb6V8siccy4geXhEjc/1uoOY7JE89rW2e5C4SIuggBYsp0td+tCIBw2YRPqVYB7uCnsGsK4VNEJtHdl5ww4NFyIGcV4WD1gV6qSroPJbacyCG9Pa5OAFezfvDBiNiMqoWJE1dz24i5/zNxvc7K0Usy9jMqp5+xZWDyIrhj4ZbjXDaKEMDl9gFwAb1yOVQRUmJimSyLLeGt4+B4Qg92EsYSqFHvIyWOZ3Wjcr/sMmApQZRuF1EErlFpxobEqA/aYxsgp71tGMCJ/zm7CDUYab7lEN6j3I8TgAb1Cr+tlQC4bvkZpBz3f5eci4UBtxUQpvsvvlUol4oAqz91HAbKMfvkEkIN7XBmvjfJIOW12dxxI33b1h2Lv/f94MyKq/5xyqbOlXBx3JfjeC9H3lRxD0AqVBSkXr7jZMBLEYDSC2C7/+v4OIQj2H8gbj+XziG4JrkQhAN4KeXLJYzS7WiUIUffOTPto35I3P9bGMB7VYi1/wBpPwee1AYnfHljd6/nWmj50u4PIQDJgx12Pb1uTQgBIG8noggiHgq1hXqKTMKJnuyr1f2HCWAJ+0wJAFQ+Em61yRVU0Ut+x1T6uy7mzMUA/YPdbyQpehQvl5TpWdvIGFdCNSUA6iSQjZzHNh++eSWC6NNdtQqiln4BBgbPsMiYpS6rZoKQtmUVfiC4IN+ACcCQ5GWghQA0D3a8DCE8fwvhb3JLEUCu9A169wASimmMDMFcQlKavqFe6XZMOb0jKZbg+G4elbkHgMZ40oH3UB5VPHDWY9+Ya4G9pI/a+FtCNq25/xIc17FtCdWcAAy8AAv9ukQdaOILnBUoDMhyjfUqHKZhqokJ8YgeGUuNSgXG/7ecWxICQFipRnBL9yl2AiySGBKHYijhoDjFzghYbb1FCZHGlRsTCZba+H/JvUma5Jdlsju/wg5LagwAmfU07WnFsz9FZ50MBvURXn3Q4sH5Hpxo78aUxAOgzsfYnTNALxNg9xfNxeQOA3LJGCFETfIxx7gQUtuPKRkBLCRAO42iN7zkAKvVNlCDRN1eTdhRM8YIIdaMBer+ZyUAJwG9SaAEoEjGwl6HfrRpa5DuUdGuPqQcDej+39b/174l9QDWRtDOpgSwlbo1biji9i6Jr6yrAblkIXSZqyZCKZktGL/JaWQhgI0nkPTetFyKlLkdWBHhMOCiW7MlE5GGeFPrh6VcsxHAJjFIr6lkuWQytSBy1V8gDMi+JyAHlhLDqdn9F3oyK7QPVzSyEsAmJKBLGyk56ETA0HxNMkoy6227UvMMyIDssAjTeKpd/rNK/mXNARxJQ8LIGqG3/q1mfR5VmKvmAjh5kZrJD9n5t8jy4buCRTyArUGCyYwcNj1fFJGjoWgb0/SieaJMoTSXO6bNmXQ0IVdUlooCCjI/9GicAA4EonG7FTJO8imyBr52pFZj0AC1hEVHCWk46arpE+fbFETuBNABAdAQmbHvGzRqdoc5RnNWhryB3e8v1luQtX3c5M3QTXWn+QwngE4IwL0AK1PMX4/C9Y/etuUE0AkBaLwAv7cxv9FvW0RXckhuP47jT2e9dwLoiAAUihSdScqayHVb5yQtj0bPCd+cADoiAKUXcMnNQTVTh8b1p3FxNjM5AXRGABovwEOBvHSBZv2pl5zZn8o5AXRGAAZewOX2BuQ1a15rWqKOxf5rL5wAOiQA7WUt3NmFp+peao+AJu5fZv+Hu/4eIe0E0CEB0JCVM0zVd+W1TCnauF/6ypMTQKcEoA0FlpnmkvcGlCIQrWfGTfxtx+cE0DEBaL0ATwraUoUm6SdJ/DkBMOR2pbMAZ8N1EmAoQ4YiWuOXuv41JQHF99dnkEdXMS56TmAjh5fl/nx/1xFQTgPjj+74O+pWDSHAHzVeDFLzgxCAjp1+YhF7ejggl8qCu/qGLI2uFicAzgUNcmjVX8CMqm65UAUGocDc8yseH04hEkPjV+3LKE4A2jXPFMLpdZ3bjASm6bPmApMUMq2pTkOdV99dUJwALJajrIWrcams+5K7PoN8wOoJPIUQvtZ6vj43rmt7mmPZuz6beKlVEIDVzGMkVBNgjfpSpBorEqDM9BTCZyeBVzEaJPtWfTBLulZBADV5AT3P/rdZahw/DCFQcvaDBQP1sqR6hNXi8lOyzwbPENhbfWPyq4YAjDLRsfGe/t67om7BsZYH3Wz87fXBka6WCq29W+sJqhoCIOWzVjoJG/Sa+DvDKIU8iGTDMDxfnQiWWJ/evjCZ9ZcVFrOZf5V7VQRQigSsWVVCPLWXtXZfl/FSboC8gefaxy/tn9Xy3r7dVDpaHQHssqWmDLoHtVe3FFRqs5zApv3LEAER5bsQPk4hfJLiGyufyvip3WoJYJOQWp8RI1dK7U7NRj9Nf/bghsYUS/J7inDgCkSweEipnrmjbD+toiTzlKongL2SkiJKFHdb9upxJ4oL97vEJEDdeJ6m6fcWyHmJ8elxkVTvWyY3/iY8AK5yerl8CGTavj2HB3TGoBbiJqN/Nww/p3Dzd9JT7/DjakNzHgB3YF4uLQKR57WsG1/facy+s3Bj9DTTw94nF5Dcq1FOAFzJeLk3CCRaIeAgvRICxcbzvgILL4GMnepaZvksBr8dbMpk3xGoTgAcdfMypwhkCgliUpgTZUMIL99C+PtWeJr+23g0DPMM/i6E/62/T68xfPKZPdL5YlumnQBiauW/sxDIHBKw+tRCodwu/x4TJ4AWtKSRPtIqwbsQvmRIkjWCyGk3q9gD4QRwBVWqbAwFcwOVIfG4OyVifc8BNKEa1+qkhwX38qRNaD+M4+eapOweQE3SuGBfNmFBDcm2IgjXvOXcCaCISvTXaI9EULPhrxroBNCfLRYf8bJseFmPoAXDdwIobgbegc1BGpODXiURXQ+ZtXYZqnsAJbXG274h0GrCsPULTpwA3AirQoC8Ajph9/1Owp+XHXqld+nd4bO497TTkG41SnZMN5dQnAByIe3tQAiUJgQyeOo43SHRmnvPAdwJgIOSl6kGgYUQqD+rl0D/bpFDeL6dI6DzAx3cW0jAOQFUo9reEQ0Cm4ti/gsZpult+DAM6+Gg2yEhi5OEmr6X/NYJoCT63rYjUBgBJ4DCAvDmHYGSCDgBlETf23YECiPgBFBYAN68I1ASASeAkuh7245AYQScAAoLwJt3BEoi4ARQEn1v2xEojIATQGEBePOOQEkEnABKou9tOwKFEXACKCwAb94RKImAE0BJ9L1tR6AwAk4AhQXgzTsCJRFwAiiJvrftCBRGwAmgsAC8eUegJAJOACXR97YdgcIIOAEUFoA37wiURMAJoCT63rYjUBgBJ4DCAvDmHYGSCDgBlETf23YECiPgBFBYAN68I1ASASeAkuh7245AYQScAAoLwJt3BEoi4ARQEn1v2xEojIATQGEBePOOQEkEnABKou9tOwKFEXACKCwAb94RKImAE0BJ9L1tR6AwAk4AhQXgzTsCJRFwAiiJvrftCBRGwAmgsAC8eUegJAJOACXR97YdgcIIOAEUFoA37wiURMAJoCT63rYjUBgBJ4DCAvDmHYGSCPw/uQdbuGkS68gAAAAASUVORK5CYII=;" vertex="1" parent="1">
          <mxGeometry x="187.18" y="60" width="40" height="40" as="geometry" />
        </mxCell>
        <mxCell id="EPdt9mlcSUmJVmbG-_K2-21" value="" style="shape=image;aspect=fixed;image=data:image/png,iVBORw0KGgoAAAANSUhEUgAAAQAAAAEACAYAAABccqhmAAAAAXNSR0IArs4c6QAAEJNJREFUeF7tnYFx3LgOhqlrIHYHSSVJKrm4EtOVxFfJ2ZXEHSSvgeiZa2lP6+yuQBEUSfDbmUxmElAiPoC/SEiiBscPAhDolsDQrec4DgEIOASAJIBAxwQQgI6Dj+sQQADIAQh0TAAB6Dj4uA4BBIAcgEDHBBCAjoOP6xBAAMgBCHRM4CgAP73/kpvDrfdPuc/B8SEAATmBgwD89P7j4NwPebNNlk833n/d1JJGEIBAFgIIQBasHBQCbRBAANqIE72EQBYCCEAWrBwUAm0QOBYBf3k/Zu4yNYDMgDk8BGIJIACxxLCHgCECCIChYOIKBGIJIACxxLCHgCECCIChYOIKBGIJIACxxLCHgCECCIChYOIKBGIJIACxxLCHgCECCIChYOIKBGIJIACxxLCHgCECCIChYOIKBGIJIACxxLCHgCECCIChYOIKBGIJIACxxLCHgCECCIChYOIKBGIJIACxxLCHgCECCIChYOIKBGIJIACxxLCHgCECCIChYOIKBGIJIACxxLCHgCECCIChYOIKBGIJIACxxLCHgCECCIChYOIKBGIJIACxxLCHgCECCIChYOIKBGIJIACxxLCHgCECCIChYOIKBGIJIACxxLCHgCECCIChYOIKBGIJIACxxLCHgCECCIChYOIKBGIJIACxxLCHgCECCIChYOIKBGIJIACxxLCHgCECCIChYOIKBGIJIACxxLCHQCECP73/6Jz76MbxoxuGF+dc+ONuvT/8veWHAGyhRhsI7ETg5/39t7+G4fPo3Lcrp3wanXt+FYfHWDFAAHYKJKeBQAyBMPCHYfge0ybYDs49/nbuQSoECEAsYewhkJHAT++/DM7dO+e+pJxmHMe724eHx7VjIABrhPh/COxEYBr8/2qdbnTuYW1ZgABo0eY4EEggoD34566siQACkBA0mkJAg0Cuwb8UgVvv/bm+IgAaEeQYENhIINzaG5z7sbG5uFmYCZwTAQRAjBBDCOgT+OV9WPMnFfykvRqd+/T+7gACIKWHHQSUCex19Z+7HW4RfvD+bukGAqAcVA4HASmBPa/+i3rAySwAAZBGCzsIKBLY++p/qSCIACgGlUNBQErgp/d+euBH2kTNblkLQADUsHIgCMgJ/PJ+lFvrWr6+N/D11vuncFQEQJctR4PAKoFS0/9zywAEYDVcGEBAl0DJ6f/kydON91+ZAejGlaNBQESgAgF4ufH+EwIgChdGENAl8D/vv6+83697wjNHuznUIKkBZAfNCSDwnkCJ+//v+zDfCaAGQH5CYGcCCMDOwDkdBGoiwBKgpmjQFwjsTGDrdl+a3aQGoEmTY0EggkAFAsBdgIh4YQoBVQK5NwARdBYBEEDCBALZCBR+FPi4OQh3AbKFmAND4DyBCh4F5l0AkhMCJQhMgz/s97/LLkBnfDxO/8P/MQMokQWcs0sCFQx+935vQASgy1TE6b0JlJ72T/6eXP2ZAeydBZyvSwKVDP4/rv4IQMPpGG4lHb4Se4ji4Uux4fci/SZcw6431fVaBn/IjfkNwCVAlgANpdP0AEn4btzbwD//exrH8R83DE+IQdngVjT4w9X/WPlHAMrmRfTZt748svZZqOiO0EBMoKrBf+VDocwAxCHd31DpkdGXcRwfJF+K3d9Dm2es4Em/I9hLV/7ZAAGoNAe13xi79GmoSt1vtlstDf5D+WgmvcOjicd9yJqN7k4d1x78c7cRgbwBrGjwP43O3UlqQAhA3pyIPnru/eIQgeiQiBpkGPzhzk74Ewq+14q+y/6FgR+e8z9s+S35IQASSjvZZEiisz0/95HInVw0eZoMcTu5ZTfVgv6e4C0F4SASg3Mvv98G/nw7WMwZARCjymu4c9X4ZSoORSdMXgrtHT334M9NBAHITVh4/NxT//fdGK/cGhJ2uXuz1gd/CCACUEEa73z1nz1mFpAQ+wyDv0iRHAFISAKtpntf/ed+MwvYFkErg58ZwLb4q7fa4RbspT4XueqoA9zxgJYGPwKwY+JcOlWh6f+xO9wRkCeBtcGPAMhjn82y1PSfZUBcSJUey16etIrZFzWAuDxQt976oo9WR3gwaJ2k1cHPDGA99tktSgvA4NzjB+/vsjva6AksD34EoIKk/OX9j4hHPXP0uIqpaA7HUo9pffAjAKkZotC+4B2AY+/DLGDro6QKCKo8RA+DHwGoIPVqEIBlQZCdhJzLUJitdpZFEbCwCFSwBHhPoOsNRDK8il3t4GcGUHjwh9NXKAAzlehXSyvAmdQF7cHfQoGVGUBSyqQ3Ln0XYM2DXuoDPQ5+ZgBr2b/D/2snXq4uW95gVDsGLVz55zxhBpBrxAiPm6HaLDzzJjNz9YGeBz8zgE1jQL9RxXWAS86aqA9oL79afKqSGYD+eI4+ovZVKLoD2xuIN5/cfoo8LdUHf6MbrCAAefIr6qjayRh1cgXj1uoD2rxb3lcBAVAYACmHyPDQSUp3Utoe6gO1P0jE4D8NMQKQkvKJbTO8X57YI5Xm1dYHGPx/xhcBUMn5+IOU3ggkvsfRLdTqAydfQj6Urt++hhyz/7364L/wsc1oSoUbIACFAqCdkIXcWD3t1vrAYi/8LysnWZ1xaLNe+97eKpSKDBCAAsEouO4POwGHd/+/DM6FD01IvziTSklcH0hgc1YIGPzXQ4cApKZ2ZPuC6/7D4J+nzWEJ8pdz96Nz3yJdSDG/eLWeuNwHcUo5wXLGweBfJ4kArDNSsyi47j8Z/EuHtAZeJKST+kAGUZy/jZckJkufLE37l34hAJGZm2KufUWS9EX6dNo0CL/vuCwIX6V5/D2Oz8MwhPNW+7M6+A/11Jn6DhtTVP1edO7sS1jbbura9BbfPzGV8nCiqZ971gc2+bdXI8uDHwHYKYu0prjhibPpFlgo4n1efDr6v6/EjuPz7cPDY4pri/pAmELvVShM6XKWttYHPwKQJW1OD6q17pdO5TVdKlQf0HRh87F6GPwIwOb0kDdUWvcXXT6VqA/ICetb9jL4EQD93Dk5otJbfi833n/K3FXR4TuoD1y8WyIC1KARRcBMQdPa6KO2q5Hh+kB3g58ZQK7B7/3H1yftwgc/kn4l1v3SDhurD3Q5+BEAabZH2int8FN03S912UB9oNvBjwBIszzCTqnoV826X+p6o/WBrgc/AiDNbqGd1sM+ta37he6Hh4jm9wtaeH6g+8GPAEgzW2Cn9rCPgffMG6gPNDfDEqTgJhPuAmzCdtpI62GflvaTl2CrtD7A4F8EDwGQZPKKTa/rfim66ZZoeNW3+GPFrS6vpKxj7RCAWGLv7JXW/WE9+vXW+8NWV1Z/SndHkvAgAKf4EICEdGLdHwdP6cnIuJO+sx6d+2RdaGMAIQAxtBa2Wuv+mh/22YjmYjOl2VJSt268P+Z80oGMNEYANgZSad3fxMM+GxH90Uzr8eiU/iAALAFS8ufQVulK1l01WmvJlBDA7pivsWIGsEboz6Jf2Izj38hmf5j3WowqWQjsabklzU8EQErq7cpv/iWfCBybTEsWAnsV3WuBQgAi0ph1fwSsC6YF6wBM/8/EBAEQ5jTrfiEogVmJZQDT//OBQQAECat11WIK+gZbSUwFkTuacPW/QAsBWEkj1v0x40xuu+csgKv/5bggACs5q7Hut/aSj3yYX7bccRbA1f9KwBCAK3A0Br9zjgS8VBD0h8fywktC2X4su66jRQAyV6t59vx6AuZcCoQPqaR+JCWbMlVyYATgTCAU1/3hDb/5Q5WVhLy+buQQAa78sjgjAO84TYM/POmX9O46hSdZAs5Wmg8IMfjl7BGAd6xY98uTR9tSYeOQk8+Oa/fP4vEQgEVUlSrTFP0SR8o0GxBvLLr1S8iJ3TTRHAGYwqj1phrTT71xEWLinFt+CXk++Mvg3MvvcXx2w/DEBh/bmZsWgDCl/GsYPo/OhUQKv3ldf/ic9utgfX79t8OntK1/yWd7itDSMgFzArDYm/5bROCCICQV/V6vVF1t7hHBFtOKCZgSAKU1/JZwse7fQo02xQmYEIDp1t33sF4sQZR1fwnqnFODQPMCUMHgf7j13msEg2NAYG8CTQtA6cHPun/vdOV82gSaFgClh3a2MmXdv5Uc7aoh0KwAFCz4HYLHur+aHKYjCQSaFACtl3W2cuMts63kaFcbgVYFIPt75JcCxeYetaUw/Ukh0JwAFL76s+5PyTbaVkegRQEodvVnc4/q8pcOJRJoTgBKVv4RgMRso3l1BJoSgMLTf0fxr7r8pUOJBNoSgPv7b8MwhEd+S/144acUec6bhUBbArDDLrIrlCkCZklDDlqKAAIQSZ7vy0cCw7xqAk0JgObGkVujQiFwKzna1UigKQEoeQdgDh4CUGMa06etBBCASHIIQCQwzKsm0JQA1LAEoAZQdT7TuUgCCEAcMO4CxPHCunICTQnA9OGIks8BIACVJzTdiyPQlgB4H/aID5/tKvLjc19FsHPSjASaEoDAIceHJKV82QRESgq7Vgg0JwAlC4EUAFtJa/opJdCcAGh9wksKaLZj+h9LDPsWCDQnAKWWAdz/byGd6WMsgSYFoMAsgLcAYzML+yYINCkA0ywg3A3Y5UtAXP2byGU6uYFAswIwbQ4SRCD1o55XsbH235BVNGmGQLMCEAhPDwbdZxQBpv7NpDId3UKgaQE4iMDbJiF/ZxABBv+WjKJNUwSaF4BMMwEGf1NpTGe3EjAhANNMIDwmHN4TSKoJsObfmkq0a5GAGQGY4ScsCZ5G5+5uvX9pMZD0GQJbCJgTgIUQhBnBXCC8OCsIV/zXWcMjA39L+tCmdQJmBWAZmHDL8LA0GMc3IRiGp/AXg7719KX/qQS6EIBUSLSHgFUCCIDVyOIXBAQEEAABJEwgYJUAAmA1svgFAQEBBEAACRMIWCWAAFiNLH5BQEAAARBAwgQCVgkgAFYji18QEBBAAASQMIGAVQIIgNXI4hcEBAQQAAEkTCBglQACYDWy+AUBAQEEQAAJEwhYJYAAWI0sfkFAQAABEEDCBAJWCSAAViOLXxAQEEAABJAwgYBVAgiA1cjiFwQEBBAAASRMIGCVAAJgNbL4BQEBAQRAAAkTCFglgABYjSx+QUBAAAEQQMIEAlYJIABWI4tfEBAQQAAEkDCBgFUCCIDVyOIXBAQEEAABJEwgYJUAAmA1svgFAQEBBEAACRMIWCWAAFiNLH5BQEAAARBAwgQCVgkgAFYji18QEBBAAASQMIGAVQIIgNXI4hcEBAQQAAEkTCBglcCeAvDinAt/+EEAAjsSGJ17vvXenzvlngKwo8ucCgIQmAkMzj1+8P4OASAnINAhAQSgw6DjMgSYAZADEICAYwZAEkCgYwIIQMfBx3UIIADkAAQ6JoAAdBx8XIcAAkAOQKBjAghAx8HHdQggAOQABDomgAB0HHxchwACQA5AoGMCCEDHwcd1CIzOPfA2IHkAgU4JIACdBh63IRAIIADkAQQ6JoAAdBx8XIcAAkAOQKBjAghAx8HHdQggAOQABDomgAB0HHxch8A4jne3Dw+P50iwKzD5AQHjBBAA4wHGPQhcIyBaAoAQAhDoj8BxCdCf63gMAQggAOQABDomgAB0HHxchwACQA5AoGMCCEDHwcd1CCAA5AAEOiaAAHQcfFyHAAJADkCgYwIIQMfBx3UIIADkAAQ6JvB/OGfsiPYq/sEAAAAASUVORK5CYII=;" vertex="1" parent="1">
          <mxGeometry x="192.18" y="330" width="30" height="30" as="geometry" />
        </mxCell>
        <mxCell id="EPdt9mlcSUmJVmbG-_K2-22" value="&lt;font face=&quot;Times New Roman&quot;&gt;(a)&lt;/font&gt;" style="text;strokeColor=none;align=center;fillColor=none;html=1;verticalAlign=middle;whiteSpace=wrap;rounded=0;" vertex="1" parent="1">
          <mxGeometry x="80" y="300" width="60" height="30" as="geometry" />
        </mxCell>
        <mxCell id="EPdt9mlcSUmJVmbG-_K2-23" value="&lt;font face=&quot;Times New Roman&quot;&gt;(b)&lt;/font&gt;" style="text;strokeColor=none;align=center;fillColor=none;html=1;verticalAlign=middle;whiteSpace=wrap;rounded=0;" vertex="1" parent="1">
          <mxGeometry x="278.07" y="300" width="60" height="30" as="geometry" />
        </mxCell>
        <mxCell id="EPdt9mlcSUmJVmbG-_K2-24" value="&lt;font face=&quot;Times New Roman&quot;&gt;&lt;span style=&quot;font-size: 10px;&quot;&gt;RNN&lt;/span&gt;&lt;/font&gt;&lt;br&gt;&lt;div&gt;&lt;font face=&quot;Times New Roman&quot;&gt;&lt;span style=&quot;font-size: 10px;&quot;&gt;TCN&lt;/span&gt;&lt;/font&gt;&lt;/div&gt;" style="rounded=0;whiteSpace=wrap;html=1;fillColor=#dae8fc;opacity=50;glass=0;shadow=1;strokeColor=#6c8ebf;strokeWidth=3;" vertex="1" parent="1">
          <mxGeometry x="80" y="166.25" width="32" height="30" as="geometry" />
        </mxCell>
        <mxCell id="EPdt9mlcSUmJVmbG-_K2-25" value="&lt;font face=&quot;Times New Roman&quot;&gt;&lt;span style=&quot;font-size: 10px;&quot;&gt;GNN&lt;/span&gt;&lt;/font&gt;&lt;div&gt;&lt;font face=&quot;Times New Roman&quot;&gt;&lt;span style=&quot;font-size: 10px;&quot;&gt;CNN&lt;/span&gt;&lt;/font&gt;&lt;/div&gt;" style="rounded=0;whiteSpace=wrap;html=1;fillColor=#dae8fc;opacity=50;glass=0;shadow=1;strokeColor=#6c8ebf;strokeWidth=3;" vertex="1" parent="1">
          <mxGeometry x="152" y="166.25" width="32" height="30" as="geometry" />
        </mxCell>
        <mxCell id="EPdt9mlcSUmJVmbG-_K2-26" style="edgeStyle=orthogonalEdgeStyle;rounded=1;orthogonalLoop=1;jettySize=auto;html=1;exitX=1;exitY=0.75;exitDx=0;exitDy=0;entryX=0;entryY=0.75;entryDx=0;entryDy=0;strokeColor=#2D7600;curved=0;fillColor=#60a917;strokeWidth=2;opacity=60;" edge="1" parent="1">
          <mxGeometry relative="1" as="geometry">
            <mxPoint x="259.55" y="198.62" as="sourcePoint" />
            <mxPoint x="304.8" y="198.62" as="targetPoint" />
          </mxGeometry>
        </mxCell>
        <mxCell id="EPdt9mlcSUmJVmbG-_K2-27" value="&lt;div&gt;&lt;span style=&quot;background-color: rgb(149, 236, 105); color: rgb(53, 53, 53); font-family: mp-quote, -apple-system-font, BlinkMacSystemFont, &amp;quot;Helvetica Neue&amp;quot;, &amp;quot;PingFang SC&amp;quot;, &amp;quot;Hiragino Sans GB&amp;quot;, &amp;quot;Microsoft YaHei UI&amp;quot;, &amp;quot;Microsoft YaHei&amp;quot;, Arial, sans-serif; text-align: left;&quot;&gt;&lt;br&gt;&lt;/span&gt;&lt;/div&gt;&lt;div&gt;&lt;span style=&quot;background-color: rgb(149, 236, 105); color: rgb(53, 53, 53); font-family: mp-quote, -apple-system-font, BlinkMacSystemFont, &amp;quot;Helvetica Neue&amp;quot;, &amp;quot;PingFang SC&amp;quot;, &amp;quot;Hiragino Sans GB&amp;quot;, &amp;quot;Microsoft YaHei UI&amp;quot;, &amp;quot;Microsoft YaHei&amp;quot;, Arial, sans-serif; text-align: left;&quot;&gt;$$\mathcal{G}_t^{(k)}$$&lt;/span&gt;&lt;br&gt;&lt;/div&gt;" style="rounded=0;whiteSpace=wrap;html=1;fillColor=#d5e8d4;strokeColor=#82B366;strokeWidth=2;opacity=50;" vertex="1" parent="1">
          <mxGeometry x="228.07" y="168.75" width="31.93" height="30" as="geometry" />
        </mxCell>
        <mxCell id="EPdt9mlcSUmJVmbG-_K2-28" value="&lt;div&gt;&lt;span style=&quot;background-color: rgb(149, 236, 105); color: rgb(53, 53, 53); font-family: mp-quote, -apple-system-font, BlinkMacSystemFont, &amp;quot;Helvetica Neue&amp;quot;, &amp;quot;PingFang SC&amp;quot;, &amp;quot;Hiragino Sans GB&amp;quot;, &amp;quot;Microsoft YaHei UI&amp;quot;, &amp;quot;Microsoft YaHei&amp;quot;, Arial, sans-serif; text-align: left;&quot;&gt;&lt;br&gt;&lt;/span&gt;&lt;/div&gt;&lt;div&gt;&lt;span style=&quot;background-color: rgb(149, 236, 105); color: rgb(53, 53, 53); font-family: mp-quote, -apple-system-font, BlinkMacSystemFont, &amp;quot;Helvetica Neue&amp;quot;, &amp;quot;PingFang SC&amp;quot;, &amp;quot;Hiragino Sans GB&amp;quot;, &amp;quot;Microsoft YaHei UI&amp;quot;, &amp;quot;Microsoft YaHei&amp;quot;, Arial, sans-serif; text-align: left;&quot;&gt;$$\mathcal{G}_s^{(k)}$$&lt;/span&gt;&lt;br&gt;&lt;/div&gt;" style="rounded=0;whiteSpace=wrap;html=1;fillColor=#d5e8d4;strokeColor=#82B366;strokeWidth=2;opacity=50;" vertex="1" parent="1">
          <mxGeometry x="305.25" y="168.75" width="31.93" height="30" as="geometry" />
        </mxCell>
        <mxCell id="EPdt9mlcSUmJVmbG-_K2-29" style="edgeStyle=orthogonalEdgeStyle;rounded=1;orthogonalLoop=1;jettySize=auto;html=1;exitX=1;exitY=0.75;exitDx=0;exitDy=0;entryX=0;entryY=0.75;entryDx=0;entryDy=0;strokeColor=#2D7600;curved=0;fillColor=#60a917;strokeWidth=2;opacity=60;" edge="1" parent="1">
          <mxGeometry relative="1" as="geometry">
            <mxPoint x="304.68" y="168.75" as="sourcePoint" />
            <mxPoint x="259.68" y="168.75" as="targetPoint" />
          </mxGeometry>
        </mxCell>
        <mxCell id="EPdt9mlcSUmJVmbG-_K2-30" value="&lt;span style=&quot;color: rgb(0, 0, 0); font-family: &amp;quot;Times New Roman&amp;quot;; font-style: normal; font-variant-ligatures: normal; font-variant-caps: normal; letter-spacing: normal; orphans: 2; text-align: center; text-indent: 0px; text-transform: none; widows: 2; word-spacing: 0px; -webkit-text-stroke-width: 0px; white-space: normal; text-decoration-thickness: initial; text-decoration-style: initial; text-decoration-color: initial; float: none; font-size: 7px; display: inline !important;&quot;&gt;&lt;font style=&quot;font-size: 7px;&quot;&gt;&lt;b&gt;Adaptive&lt;/b&gt;&lt;/font&gt;&lt;/span&gt;&lt;div style=&quot;font-size: 7px;&quot;&gt;&lt;div style=&quot;line-height: 70%;&quot;&gt;&lt;span style=&quot;color: rgb(0, 0, 0); font-family: &amp;quot;Times New Roman&amp;quot;; font-style: normal; font-variant-ligatures: normal; font-variant-caps: normal; letter-spacing: normal; orphans: 2; text-align: center; text-indent: 0px; text-transform: none; widows: 2; word-spacing: 0px; -webkit-text-stroke-width: 0px; white-space: normal; text-decoration-thickness: initial; text-decoration-style: initial; text-decoration-color: initial; float: none; display: inline !important;&quot;&gt;&lt;font style=&quot;font-size: 7px;&quot;&gt;&lt;b&gt;Matrix W&lt;/b&gt;&lt;/font&gt;&lt;/span&gt;&lt;/div&gt;&lt;/div&gt;" style="text;whiteSpace=wrap;html=1;" vertex="1" parent="1">
          <mxGeometry x="265.29" y="164.75" width="43.78" height="30" as="geometry" />
        </mxCell>
        <mxCell id="EPdt9mlcSUmJVmbG-_K2-31" style="rounded=0;orthogonalLoop=1;jettySize=auto;html=1;exitX=-0.062;exitY=0.932;exitDx=0;exitDy=0;entryX=0;entryY=0;entryDx=0;entryDy=0;endArrow=none;endFill=0;fillColor=#d5e8d4;strokeColor=#82b366;opacity=60;exitPerimeter=0;dashed=1;" edge="1" parent="1" source="EPdt9mlcSUmJVmbG-_K2-30" target="EPdt9mlcSUmJVmbG-_K2-11">
          <mxGeometry relative="1" as="geometry" />
        </mxCell>
        <mxCell id="EPdt9mlcSUmJVmbG-_K2-32" style="rounded=0;orthogonalLoop=1;jettySize=auto;html=1;entryX=1;entryY=0;entryDx=0;entryDy=0;endArrow=none;endFill=0;fillColor=#d5e8d4;strokeColor=#82b366;opacity=60;dashed=1;exitX=0.798;exitY=0.912;exitDx=0;exitDy=0;exitPerimeter=0;" edge="1" parent="1" source="EPdt9mlcSUmJVmbG-_K2-30" target="EPdt9mlcSUmJVmbG-_K2-11">
          <mxGeometry relative="1" as="geometry">
            <mxPoint x="290" y="188.75" as="sourcePoint" />
            <mxPoint x="237" y="218.75" as="targetPoint" />
          </mxGeometry>
        </mxCell>
        <mxCell id="EPdt9mlcSUmJVmbG-_K2-33" style="rounded=0;orthogonalLoop=1;jettySize=auto;html=1;fillColor=#d5e8d4;strokeColor=#82b366;shape=flexArrow;entryX=0.5;entryY=0;entryDx=0;entryDy=0;sketch=1;curveFitting=1;jiggle=2;" edge="1" parent="1" target="EPdt9mlcSUmJVmbG-_K2-9">
          <mxGeometry relative="1" as="geometry">
            <mxPoint x="230" y="80" as="sourcePoint" />
            <Array as="points">
              <mxPoint x="248.06999999999982" y="80" />
            </Array>
            <mxPoint x="275.24999999999983" y="118" as="targetPoint" />
          </mxGeometry>
        </mxCell>
        <mxCell id="EPdt9mlcSUmJVmbG-_K2-34" style="rounded=0;orthogonalLoop=1;jettySize=auto;html=1;fillColor=#d5e8d4;strokeColor=#82b366;shape=flexArrow;sketch=1;curveFitting=1;jiggle=2;" edge="1" parent="1">
          <mxGeometry relative="1" as="geometry">
            <mxPoint x="286.86" y="300" as="sourcePoint" />
            <Array as="points">
              <mxPoint x="270" y="320" />
            </Array>
            <mxPoint x="227.18" y="340" as="targetPoint" />
          </mxGeometry>
        </mxCell>
        <mxCell id="EPdt9mlcSUmJVmbG-_K2-35" style="rounded=0;orthogonalLoop=1;jettySize=auto;html=1;fillColor=#dae8fc;strokeColor=#6c8ebf;shape=flexArrow;sketch=1;curveFitting=1;jiggle=2;exitX=1;exitY=0;exitDx=0;exitDy=0;" edge="1" parent="1" source="EPdt9mlcSUmJVmbG-_K2-22">
          <mxGeometry relative="1" as="geometry">
            <mxPoint x="137.42000000000002" y="290.53999999999996" as="sourcePoint" />
            <Array as="points">
              <mxPoint x="147.18" y="310" />
              <mxPoint x="154.36" y="320.0000000000002" />
              <mxPoint x="167.18" y="330" />
            </Array>
            <mxPoint x="187.18" y="340" as="targetPoint" />
          </mxGeometry>
        </mxCell>
        <mxCell id="EPdt9mlcSUmJVmbG-_K2-36" style="edgeStyle=orthogonalEdgeStyle;rounded=0;orthogonalLoop=1;jettySize=auto;html=1;" edge="1" parent="1" target="EPdt9mlcSUmJVmbG-_K2-39">
          <mxGeometry relative="1" as="geometry">
            <mxPoint x="735.6557142857146" y="93.99999999999977" as="sourcePoint" />
            <Array as="points">
              <mxPoint x="735.3700000000001" y="110" />
              <mxPoint x="661.3700000000001" y="110" />
            </Array>
          </mxGeometry>
        </mxCell>
        <mxCell id="EPdt9mlcSUmJVmbG-_K2-37" style="edgeStyle=orthogonalEdgeStyle;rounded=0;orthogonalLoop=1;jettySize=auto;html=1;exitX=0.5;exitY=1;exitDx=0;exitDy=0;" edge="1" parent="1" target="EPdt9mlcSUmJVmbG-_K2-46">
          <mxGeometry relative="1" as="geometry">
            <mxPoint x="735.6300000000003" y="93.99999999999977" as="sourcePoint" />
            <Array as="points">
              <mxPoint x="735.3700000000001" y="110" />
              <mxPoint x="811.3700000000001" y="110" />
            </Array>
          </mxGeometry>
        </mxCell>
        <mxCell id="EPdt9mlcSUmJVmbG-_K2-38" style="edgeStyle=orthogonalEdgeStyle;rounded=0;orthogonalLoop=1;jettySize=auto;html=1;exitX=0.5;exitY=1;exitDx=0;exitDy=0;entryX=0.5;entryY=0;entryDx=0;entryDy=0;" edge="1" parent="1" source="EPdt9mlcSUmJVmbG-_K2-39">
          <mxGeometry relative="1" as="geometry">
            <Array as="points">
              <mxPoint x="661.3700000000001" y="340" />
              <mxPoint x="736.3700000000001" y="340" />
            </Array>
            <mxPoint x="736.3700000000001" y="360" as="targetPoint" />
          </mxGeometry>
        </mxCell>
        <mxCell id="EPdt9mlcSUmJVmbG-_K2-39" value="" style="rounded=1;whiteSpace=wrap;html=1;fillColor=#DAE8FC;strokeColor=#DAE8FC;opacity=40;dashed=1;strokeWidth=4;gradientColor=none;" vertex="1" parent="1">
          <mxGeometry x="596.3700000000001" y="130" width="130" height="190" as="geometry" />
        </mxCell>
        <mxCell id="EPdt9mlcSUmJVmbG-_K2-40" value="&lt;font style=&quot;font-size: 14px;&quot;&gt;&lt;font style=&quot;font-size: 14px;&quot; face=&quot;Times New Roman&quot;&gt;Time Series Forecasting Models&lt;font style=&quot;font-size: 14px;&quot;&gt;(&lt;/font&gt;&lt;/font&gt;&lt;span style=&quot;color: rgb(53, 53, 53); text-align: left;&quot;&gt;&lt;font style=&quot;font-size: 14px;&quot; face=&quot;Times New Roman&quot;&gt;Attention-Based RNN)&lt;/font&gt;&lt;/span&gt;&lt;/font&gt;" style="rounded=0;whiteSpace=wrap;html=1;fillColor=#DAE8FC;strokeColor=#66B2FF;opacity=60;strokeWidth=2;" vertex="1" parent="1">
          <mxGeometry x="606.3700000000001" y="140" width="110" height="90" as="geometry" />
        </mxCell>
        <mxCell id="EPdt9mlcSUmJVmbG-_K2-41" value="&lt;font face=&quot;Times New Roman&quot;&gt;Spatial Prediction Models(GCN)&lt;/font&gt;" style="rounded=0;whiteSpace=wrap;html=1;fillColor=#DAE8FC;strokeColor=#66B2FF;strokeWidth=2;opacity=60;" vertex="1" parent="1">
          <mxGeometry x="609.22" y="270" width="104.3" height="40" as="geometry" />
        </mxCell>
        <mxCell id="EPdt9mlcSUmJVmbG-_K2-42" value="" style="ellipse;whiteSpace=wrap;html=1;aspect=fixed;" vertex="1" parent="1">
          <mxGeometry x="651.3700000000001" y="240" width="20" height="20" as="geometry" />
        </mxCell>
        <mxCell id="EPdt9mlcSUmJVmbG-_K2-43" style="rounded=0;orthogonalLoop=1;jettySize=auto;html=1;exitX=0;exitY=0.5;exitDx=0;exitDy=0;entryX=1;entryY=0.5;entryDx=0;entryDy=0;endArrow=none;endFill=0;" edge="1" parent="1" source="EPdt9mlcSUmJVmbG-_K2-42" target="EPdt9mlcSUmJVmbG-_K2-42">
          <mxGeometry relative="1" as="geometry" />
        </mxCell>
        <mxCell id="EPdt9mlcSUmJVmbG-_K2-44" style="edgeStyle=orthogonalEdgeStyle;rounded=0;orthogonalLoop=1;jettySize=auto;html=1;exitX=0.5;exitY=0;exitDx=0;exitDy=0;entryX=0.5;entryY=1;entryDx=0;entryDy=0;startArrow=none;startFill=0;endArrow=none;endFill=0;" edge="1" parent="1" source="EPdt9mlcSUmJVmbG-_K2-42" target="EPdt9mlcSUmJVmbG-_K2-42">
          <mxGeometry relative="1" as="geometry" />
        </mxCell>
        <mxCell id="EPdt9mlcSUmJVmbG-_K2-45" style="edgeStyle=orthogonalEdgeStyle;rounded=0;orthogonalLoop=1;jettySize=auto;html=1;exitX=0.5;exitY=1;exitDx=0;exitDy=0;entryX=0.5;entryY=0;entryDx=0;entryDy=0;" edge="1" parent="1" source="EPdt9mlcSUmJVmbG-_K2-46">
          <mxGeometry relative="1" as="geometry">
            <mxPoint x="736.3700000000001" y="360" as="targetPoint" />
          </mxGeometry>
        </mxCell>
        <mxCell id="EPdt9mlcSUmJVmbG-_K2-46" value="" style="rounded=1;whiteSpace=wrap;html=1;fillColor=#D5E8D4;strokeColor=#D5E8D4;opacity=40;strokeWidth=4;dashed=1;" vertex="1" parent="1">
          <mxGeometry x="746.3700000000001" y="130" width="130" height="190" as="geometry" />
        </mxCell>
        <mxCell id="EPdt9mlcSUmJVmbG-_K2-47" style="rounded=0;orthogonalLoop=1;jettySize=auto;html=1;exitX=0.5;exitY=1;exitDx=0;exitDy=0;entryX=0.5;entryY=0;entryDx=0;entryDy=0;dashed=1;endArrow=none;endFill=0;strokeWidth=1;" edge="1" parent="1" source="EPdt9mlcSUmJVmbG-_K2-48" target="EPdt9mlcSUmJVmbG-_K2-49">
          <mxGeometry relative="1" as="geometry" />
        </mxCell>
        <mxCell id="EPdt9mlcSUmJVmbG-_K2-48" value="&lt;font style=&quot;font-size: 14px;&quot; face=&quot;Times New Roman&quot;&gt;Adaptive Temporal Joint Parameter Matrix:&lt;i&gt;W&lt;/i&gt;&lt;/font&gt;" style="rounded=0;whiteSpace=wrap;html=1;fillColor=#d5e8d4;strokeColor=#82B366;strokeWidth=2;opacity=50;" vertex="1" parent="1">
          <mxGeometry x="756.3700000000001" y="140" width="110" height="90" as="geometry" />
        </mxCell>
        <mxCell id="EPdt9mlcSUmJVmbG-_K2-49" value="" style="rounded=0;whiteSpace=wrap;html=1;fillColor=#d5e8d4;strokeColor=#82B366;strokeWidth=2;gradientColor=none;shadow=0;glass=0;opacity=50;" vertex="1" parent="1">
          <mxGeometry x="756.3700000000001" y="250" width="110" height="60" as="geometry" />
        </mxCell>
        <mxCell id="EPdt9mlcSUmJVmbG-_K2-50" value="&lt;font style=&quot;font-size: 11px;&quot; face=&quot;Times New Roman&quot;&gt;Low-rank matrix&lt;/font&gt;" style="text;strokeColor=none;align=center;fillColor=none;html=1;verticalAlign=middle;whiteSpace=wrap;rounded=0;" vertex="1" parent="1">
          <mxGeometry x="766.3700000000001" y="290" width="100" height="20" as="geometry" />
        </mxCell>
        <mxCell id="EPdt9mlcSUmJVmbG-_K2-51" value="" style="ellipse;whiteSpace=wrap;html=1;aspect=fixed;" vertex="1" parent="1">
          <mxGeometry x="803.8700000000001" y="268.75" width="15" height="15" as="geometry" />
        </mxCell>
        <mxCell id="EPdt9mlcSUmJVmbG-_K2-52" style="rounded=0;orthogonalLoop=1;jettySize=auto;html=1;exitX=1;exitY=1;exitDx=0;exitDy=0;entryX=0;entryY=0;entryDx=0;entryDy=0;endArrow=none;endFill=0;" edge="1" parent="1" source="EPdt9mlcSUmJVmbG-_K2-51" target="EPdt9mlcSUmJVmbG-_K2-51">
          <mxGeometry relative="1" as="geometry" />
        </mxCell>
        <mxCell id="EPdt9mlcSUmJVmbG-_K2-53" style="rounded=0;orthogonalLoop=1;jettySize=auto;html=1;exitX=1;exitY=0;exitDx=0;exitDy=0;entryX=0;entryY=1;entryDx=0;entryDy=0;endArrow=none;endFill=0;" edge="1" parent="1" source="EPdt9mlcSUmJVmbG-_K2-51" target="EPdt9mlcSUmJVmbG-_K2-51">
          <mxGeometry relative="1" as="geometry" />
        </mxCell>
        <mxCell id="EPdt9mlcSUmJVmbG-_K2-54" value="" style="rounded=0;whiteSpace=wrap;html=1;fillColor=#B9E0A5;opacity=50;glass=0;shadow=1;strokeColor=#97D077;strokeWidth=3;" vertex="1" parent="1">
          <mxGeometry x="826.3700000000001" y="260" width="32.5" height="30" as="geometry" />
        </mxCell>
        <mxCell id="EPdt9mlcSUmJVmbG-_K2-55" value="$$\mathit{B}$$" style="text;strokeColor=none;align=center;fillColor=none;html=1;verticalAlign=middle;whiteSpace=wrap;rounded=0;" vertex="1" parent="1">
          <mxGeometry x="826.3700000000001" y="265" width="30" height="22.5" as="geometry" />
        </mxCell>
        <mxCell id="EPdt9mlcSUmJVmbG-_K2-56" value="" style="rounded=0;whiteSpace=wrap;html=1;fillColor=#B9E0A5;opacity=50;glass=0;shadow=1;strokeColor=#97D077;strokeWidth=3;" vertex="1" parent="1">
          <mxGeometry x="765" y="260" width="31.37" height="30" as="geometry" />
        </mxCell>
        <mxCell id="EPdt9mlcSUmJVmbG-_K2-57" value="$$\mathit{A}$$" style="text;strokeColor=none;align=center;fillColor=none;html=1;verticalAlign=middle;whiteSpace=wrap;rounded=0;" vertex="1" parent="1">
          <mxGeometry x="762.5" y="262.5" width="33.87" height="27.5" as="geometry" />
        </mxCell>
        <mxCell id="EPdt9mlcSUmJVmbG-_K2-58" value="" style="shape=image;aspect=fixed;image=data:image/png,iVBORw0KGgoAAAANSUhEUgAAAQAAAAEACAYAAABccqhmAAAAAXNSR0IArs4c6QAAHppJREFUeF7tXeuB3DavpdxA4go+p5IkldiuxNpK4lSSTSXZVJDcBqxraKWJRjsSgQPwJWL/5DEUHwfAIQC+huB/joAj0C0CQ7cj94E7Ao5AcAJwJXAEOkbACaBj4fvQHQEnANcBR6BjBJwAOha+D90RcAJwHXAEOkbACaBj4fvQHQEnANcBR6BjBJwAOha+D90RcAJwHXAEOkbACaBj4fvQHQEnANcBR6BjBJwAOha+D90RcAJwHXAEOkbACaBj4fvQHQEnANcBR6BjBJwAOha+D90RcAJwHXAEOkbACaBj4fvQHQEnANcBR6BjBJwAOha+D90RcAJwHXAEOkbACaBj4fvQHQEngIvqwD/j+OFsaO/H8eWiQ/dhCRBwAhCAlaPoYrgfwjS9GvAwfHgXwv/oX6cQ6P89MuxTY2f2e08I838PIbx8C+HvuY5pegnDsJab/+lEwkS30mJOABkFMxv3NP1CTb4bhp8Xo57/+8CwM/ZO1RSRwUwIUwh/LjU90/9zglDhmvxjJ4AEEP/z5cun1cg3s7bFLJ2gt1mqnAnCySEL1qJGnABEcL0tPBv74qZPIdBs3rOhS9HcEoN7DFL0DMo7AQhA3M3sbuwC7ARFiQjWUMJJQQAcUtQJIIIaGT3F61MIs1vvf0UQeJ6m6fcwDM+eU7DF3wlgh+fG4H2Gt9U1q9qel1wCkcHsLfgfjoATQAjBjR5XoMJfrmTw1T0DTBJdEwAZ/jAMXzxxhylPZV95mAAIpDsC+Gccf3kXwkeP6QFtaeSTIYSv30J4cq8gLrBuCIAMfwiBZvt1400cHS/ROgIUInx2IjgW4+UJgHbfDSH85obfui3j/XePoFMC+Gccx2XWx7WnvS8f7ulfhpHqHEETKE0hPH3P93jCcCOtS3oADbv78844OoBDMpoP4dABHPp7PYRzZ9ypXNvNScJXwqCDScMw/zsdTFq2N9N/roTS0u5HDwuuTAC1z/rkjs7GPU2vh2Yusrnl7hTjMFDYRYedqiUI9wZeWeBSHsC/4/hHJbH+8+0Y7esR2q53sJFHtkw6tAKzehBHR5uzhROeG7gIAZRO9C2KNLvr75+e5hne/+IILMRAqzOrt1AilOg6JGjeAyhh/LPBkwvf+cweN3FZiVsYEcJKCrmWbOmo8q+pcioyFPKWbp4AMrn9vsssr17OrWX2ELr0BJomgJTG77N8AYuPNLlZ3UmSP6DE4PtxHOsbeboeNUsAyz5+2uBj+ufZYVM4k1WW6hzHNE2fe8rjNEkAS9z/l6F2vUzT9NST4A2xK1pVgj0fXeUDWiUAqx1+FPeR2+fnyouasb5xy0NePYUCzRGA1ezfm6unN7E2alg8AgoNVUuKUwg/9bAq0CIBaGf/LrO9bZivXS//bxx/0xz57sULaI4A/h3HCVUTn/XlyC1r859oB9/yQEgzh2mU3sDLj+P4kxyxtr5oigA0+/x7YXRL9VsMiLZXb/8oSUZn7JvIm6h0poMVgaYIQLHu//zjOP5qaRwl6topMxni76nWrSOG09TsiJIA7QX5YRw/l5B1rjabIQBF8q8pZX0k+LPtztaezdIWzfqnSbRl62wTXgBhik4eV08GtkQAUPLP2kByMfPazoEbfueSW8WqkpmytXwKunGstXFK9bMZAkAZ/Mf5UqA2/7gGqZ2NkQNVLc6M/44jbR4TLQ9ePQxowjhQ97/V2Z/rhq+0pjFGhofxhj0bxhX1Ii+7J6AVAsAE12AWlzvrb6wSTnACbdGbfc0emEHIjnC+chhwZQJoKvmHuOF0RyAS/6NttbT8dxT0eRhwj0wTBIBs/mlppgJnJmjmR2b979esQW3VmHkBxx9aziWdyaF6AoDj/0bcf0QhEXIDZ/2mXf6DJVW6bWi/uSnKVZo8S7TyggVaIAAo/q+dsUGDhHbhgR7GZY/FImEAQroF7ZrddPUEAC7/QbExGzVlQcQg0eWoXB6GEpKsn4MHhS4TBm3BrpoAYPe/4kw1ZJBAOJPTw8hqvQaNIQQ8rwZc8Ihw7QRwmXhNYZDi22rBXW+XnOEsVwOuuBxYOwEg8X917j9ikEjMCZLM5RJ9HCcBCS3RMIzTn1JlqiYAREiI4aQCHzRIT/SlEsimXoSUr7QcukJRLQG0Hv+Dl1FAbjiUV6g4T5LB/uc3B3w5sOKnwVAB1bD8l8sgc3oYOYwydxvgciDlZJo5Bh3DtGYPoLn4P6dBugsbU+347wtRi94lrCnEjI8wXqJaAmgt/gc9FrHLD5JMl4m+uPrfl9i8TUg/bB8tpf9ejxGLZSbtR87yNROA+PLPUuyc0eUnpZReeX3ZHX05DWV+p3CaPoRh+JDqGrac46k6CahIAGaNz8DZGM3yi0OiUoRYQpG9TQyBKj0AZEZFj8ZisIWAxODIOnJOkkGx8O/aRaBKAkDi/5xrtEj/kGu7cuUV2lVf77kWgVoJoMr4X3pV1yIcKAZHjP+KW1W1Cu7fnyNQHQHUGv8jLr8mBhd6Gf7cmVs6hEB9BPDly6dhGCjTLfpLuQEImI2hRN92wNxbkDQkIwLYC18SgfoIYJzv8f4iRDvpASDpbGzxChGDANQkI8TYi18QgeoIQGhss0hSz4IMYzTvx9mlFchqwgV114dkgECNBFBdApBBSuaz8foq784bMm/HQIe8ioYRqIoAGk0AJt0autmB9nKlQygN28ylul4XAWAJwKTxP0n7ZDZO9jrvpbQs8WBuJLm2Mwzzvv13Ifxv3/S3EP6+/b9pegnD8LL8NxHs+u+Je1xP9YcEQMtetO+ZQJyY76kNIbwsANNxSTGgte8AnIlgmn4hpfHZOL8SzzpJhj0MdIKPcj+/SN/6i/SaCOBFq8eWyNyR2ytZzSRlRVZvCABZ7z4YsHhtmhFrv2kqdQLQUphelwyB1eCHYfhIp/NkX5uWJl3+k3abIhObpicnm8+oT/RMm+pughsBgHvOo2OT7E7jZtu3jToBREXQVAEyeprhpxDm2b7Sv5UQvlrNxLFxHq0K0YrQt1cigMKXGwEgs2+s0+vvHBKoNQHIHaOXwxFoxOiPBvg8TdPvYRieUSPkIndyzRy03ZzanQkAjL25/aZy0Q6CoUfyBKBkkF6WjwAp87sQPiaI4/mdsC9p4pafdevIU0c94QGdeaXYxToIkpATgFQQhcsvsxjt9CwZ06dGIblX8MhekIdLiACQrbcQgGcdREKQGKlAnQQ+WpYJ6cvXa6Po5pj1b1mSov/cL0s9WF3577v7fhz9f6C3h5+8TNP09P7p6atlpWtdi4dXOpmXYmhndSYlgge2K96TMoDvpEFARgigih2At3vhViNelkJnu3418K0x5jBMCGvpR5w8jbROKt/JjB+DZibXFHmChQSIWGddlB6KG5DMe2y0R78fKRkahkgv2bit41MH7/c47A0bHWKT30lx5Awy1aoSp+2KyyTJEWyTg9IwIC8BHDxGARy3nWV8xHbbDSObWfsys7Wlgicy/mxhpSUWuerSLt096udKAtIwLisB0EaKZUPF3Ri+v9BCO7ukSaE5AbguIS0uuvXOsFw6UaQda+MHX0MqMvYaGiWP2DIsWMNXyeag3ARQA+7eh9dl2c8SRYmBhiRxY3V28rt4x6wlLkQAfxnvp7bsn9dlj4Cp8VeQ5Hu+7d3/73DPbVfcdnPOm9WaV2xnz3PxQovlglIlYWPqk3UVINYZ/z09ApZuP7h5SzPIV2Ofpj8tXed9h+YDOPcvA2XJH9Gy9vfJONv24pn4CghRowD+rQIBS+PP5fLPCbPEBh+DNPOuxawhwboT8A8PA2Jq0PbvVpumcizvrUafalOSRpKbkCdpuGBJ1mfjzXUWQIO5f6tEwOoOQXS/Brf71llxbrtoudSrHjnyAllOA6IA+3cmCIi3hz5qFd2rwRhB0i3IjPbVRVISgZXndjTIuwtBcm4LVqN+jQo4Z7g5ZR6iQQmzH8bxsxaqRMbfvOE/Sh4ul7hK97SciiglCby9EWgckSeotTpW+/fzrStkUGtH56vPaNlp/fvvbjn6P3dGm/qceErwUhh/SoVOiQW37iWxTicezVYPUq0QHN8JuHkP/dHlinswNifbOIPmlOHirSlH97/Nxj1nmmcrt793TdPBkt8mMP6sGe6S2FHbi0dttjs1BXFmvRU4gUJxZbxdP54vVmx5VuYOWlPOWFamm48048r9rXV+wJoEshFA6gzyVrA1rB3nVjTL9oxlZZKEtBxfibos792wJIFsBJBy44gbvJ1KWxq/paLajbBcTZbegNUSYRYCSGH8NW8WKadiupZPrqCWVtytyx8DyhBjuqDmJ20om5wALF2fOUenvAY5JqCefzcianf5GUpktOQevWw31pWkBGDpTlrtZosB0uvvRkTtxi9QIAvMtRNiagJQ3wyjHaBAHt0WNcr4u/EDGmRBAppcSzICsJj9cx2IAOR2mU8s5OTemU4djEgAygekJADN7O9JJJ1Osb82iPt95mejfVzQgASgfEASAlDOKtBADGTQXRUGSufGb6g1WnkgoUAqAoBn/xxu/4P35M2fXTbUiyRVKUma+uTGn0AyBiQgCgWSEAD61oDV5oa9XDaPT3L2ZRd7CjqBPh1WqVQ0f5ItobCUYZnIgzYnAMXMYj6jGJzKSvaiS0L9iVatkNFcdw4vLTqIixfQXNYrCQVSEADk/lvsalp1IsFNtUledCmlwyrlmqbPNV7VVQrLVO1qdwxy7cmcAED3xWz2V7q2p/JMdSY7lRI9qleDjy/35ZTU/K4iNJlSL7mySkEAyCOfv1o8UgGSj1SqTZ9pR/MzdISaXmKSguXldQhodJrjBZgSABhbmiiWBihARKJEC1B/kk80M4rH/UlEEq1UEwpwvABbAvjy5dMwDL9FR3VfQO3+Gx2sEHVbkmgRVZywMDr7tzjWhDBmr1pJ3KfLgsUJQKtcGnC0ktT2Xdu+5HsFTiYemqSvnLKbZ77uimuPx3LaLlEGTdzGvABbAgCSFhrXEgw5TOXHibNMGwQrQxWoNpJjeHtN52iOxKu5TORMR5smgMxx/5Fs1CEMaNPsz64y+wsIv3qZsIW3KYjK8YzETQmAwc5vxo3OoAJlQLAWfYOOQdSIorBi9jdZnVF0/e5TiQHULhMEE01C8AgPUwJAZuQf56VO+R9CNvJW2F9UO+MoiLK62F9CZKm2lbM1IlFBCQluu3CEB2R8R2PLRQAKpb51fXOR6AeLt+FrnXGsFSaRXkerBWReLSlHB3tSQOEFPMSjVQKAd0idxUOahxxqnXHApb/qZn+EyGolZQ0B0Leo9/sIjyYJQAFANKZFFI2EEltu0Qod+R6YNedmaiQzROY1jgOR4/4bWK4hPL0fx3FbX5MEIIkF18FKlrNAErjErFnrll/Ek6mRlC0IgOpAbODRHQ6tEoD4vIE02YgonLQNK2U4ycmIcZIQZer+r/WjM16tZGaB23LUXbrr9s1bAs0RAKgM4tkZYdiaYk4QJ5PHJiwUfFsH6JG9hjMGj2dYj8eqPkhHd8e5uyAAxBWEYs6KlA00GjFRWinzWT3I6hIS+uUYi2UbiI7uw4AuCAC5vw5RuppmG7D/b5JElgqL1IV6Mpu2TJYDaSvuuxA+TiHcPW0/hPAyPy0/DM+5zyGg7zls9bQ5AlgSIOLYVhqft54DQPpfE4Hd4n/shOkd12jHxYy3i5xBgMKAjafaKgH8FXZMHJtdJEoAMms17jM4a1bTf6v4/xYGKK8x4xpZiWVHrafXDQFQRng5eUhXgJ/+cQW+q6QaA0LifyRPEsPR4nfEk9m3qxmbkExNwg0JboistyFxkwQAJj9YLwsjjLpkm6uJn5ExXGz5740NSTxAjQeCtiMx+l3/fvm+lf0P6fdrSNwkAYAu+orRw6u+mXHeIc6aew2kwouVRzyY3IobGwP9Ds5uD6tG5SMlU423wcHkURmNvJskgCURKM4DHABMIcFdZhcQRDXu/4KNNElaVf9X/AXG9/zdraVHX84IWuyhCd3/W9u5yVSA07aP87b4ZgnAcnYADP7uk5rcZ1Bps8euMcwF45gfkmW4weIxojqWWx+QkHhNWDZLAMZeQEwfz36vavZEwqPcCssBmzuOte8cN1g6MyOGtY5N2hYHk6MySPi6hipNEwDK0Bqw99/WZjwIJrWNQRL/r7E9x1ily3SaFYicmHLJcqu7lyCACryAqmZ/ieFslQFNkFkS6b4uzoy+PezDnAXZYQBiVA8mB9FLvSiegnBp28SMRdMewKLwdKMPLYNoE3li/Cs1HMLiNCFWSlG5AHMVej/LcmZsrmuOeFIlvUMmYW67OE9ezRPAZtb7mJMEajT+xSMSE4B0mzTXkNFyXOPby4BjBNwwgEMmjPGxN58x6jotwhn7vgKS+yUIIDcJcJVIK1Tke2RJqDYCYI7hTfjFIQ7OOj3XA+HIJ5euMDG76/KlCGAhAdoVRZckJAsHap35V8kCM8FhHmNzAk4UUnAMYykzL+HtT9FxZt9HSTZu3B4jPA6RUP6BqWc0xt8FmBwV/Xp22hAhAAqHLuMBrKgpbk2NyYhOe9FmEtp0Uu2fFQFYzoIRsO7cZG67RzMrZ/yxPACzDkqgJZ1sHuQUDu+05KyCPMr9XI4AbkTweoz0C5Olz3R03jr8/unpa7VWv+kYZ/bcjeOhB8CcBU0g2Rozt92jWZxjCGdLdEwCmjHjtGUC0FLJWTiB9OWSHsAe8GV5aE0QskOD9d2AVgx/EwJItwE/XBrjGqKRgt+8AKYre7icp10O5Ix7JZCE3uZDWBMQQPvLgBIF3N3qspIB/ZP2RM/HhEvd7iIZx1lZwAOogQDmq8jpVp0hBDrjcfoX22TDdOEfrtFzCGibB0Jm3tj4jn53AkCR6+g7jvIzQwDomKkCasqx/DmEQGHb6V8siccy4geXhEjc/1uoOY7JE89rW2e5C4SIuggBYsp0td+tCIBw2YRPqVYB7uCnsGsK4VNEJtHdl5ww4NFyIGcV4WD1gV6qSroPJbacyCG9Pa5OAFezfvDBiNiMqoWJE1dz24i5/zNxvc7K0Usy9jMqp5+xZWDyIrhj4ZbjXDaKEMDl9gFwAb1yOVQRUmJimSyLLeGt4+B4Qg92EsYSqFHvIyWOZ3Wjcr/sMmApQZRuF1EErlFpxobEqA/aYxsgp71tGMCJ/zm7CDUYab7lEN6j3I8TgAb1Cr+tlQC4bvkZpBz3f5eci4UBtxUQpvsvvlUol4oAqz91HAbKMfvkEkIN7XBmvjfJIOW12dxxI33b1h2Lv/f94MyKq/5xyqbOlXBx3JfjeC9H3lRxD0AqVBSkXr7jZMBLEYDSC2C7/+v4OIQj2H8gbj+XziG4JrkQhAN4KeXLJYzS7WiUIUffOTPto35I3P9bGMB7VYi1/wBpPwee1AYnfHljd6/nWmj50u4PIQDJgx12Pb1uTQgBIG8noggiHgq1hXqKTMKJnuyr1f2HCWAJ+0wJAFQ+Em61yRVU0Ut+x1T6uy7mzMUA/YPdbyQpehQvl5TpWdvIGFdCNSUA6iSQjZzHNh++eSWC6NNdtQqiln4BBgbPsMiYpS6rZoKQtmUVfiC4IN+ACcCQ5GWghQA0D3a8DCE8fwvhb3JLEUCu9A169wASimmMDMFcQlKavqFe6XZMOb0jKZbg+G4elbkHgMZ40oH3UB5VPHDWY9+Ya4G9pI/a+FtCNq25/xIc17FtCdWcAAy8AAv9ukQdaOILnBUoDMhyjfUqHKZhqokJ8YgeGUuNSgXG/7ecWxICQFipRnBL9yl2AiySGBKHYijhoDjFzghYbb1FCZHGlRsTCZba+H/JvUma5Jdlsju/wg5LagwAmfU07WnFsz9FZ50MBvURXn3Q4sH5Hpxo78aUxAOgzsfYnTNALxNg9xfNxeQOA3LJGCFETfIxx7gQUtuPKRkBLCRAO42iN7zkAKvVNlCDRN1eTdhRM8YIIdaMBer+ZyUAJwG9SaAEoEjGwl6HfrRpa5DuUdGuPqQcDej+39b/174l9QDWRtDOpgSwlbo1biji9i6Jr6yrAblkIXSZqyZCKZktGL/JaWQhgI0nkPTetFyKlLkdWBHhMOCiW7MlE5GGeFPrh6VcsxHAJjFIr6lkuWQytSBy1V8gDMi+JyAHlhLDqdn9F3oyK7QPVzSyEsAmJKBLGyk56ETA0HxNMkoy6227UvMMyIDssAjTeKpd/rNK/mXNARxJQ8LIGqG3/q1mfR5VmKvmAjh5kZrJD9n5t8jy4buCRTyArUGCyYwcNj1fFJGjoWgb0/SieaJMoTSXO6bNmXQ0IVdUlooCCjI/9GicAA4EonG7FTJO8imyBr52pFZj0AC1hEVHCWk46arpE+fbFETuBNABAdAQmbHvGzRqdoc5RnNWhryB3e8v1luQtX3c5M3QTXWn+QwngE4IwL0AK1PMX4/C9Y/etuUE0AkBaLwAv7cxv9FvW0RXckhuP47jT2e9dwLoiAAUihSdScqayHVb5yQtj0bPCd+cADoiAKUXcMnNQTVTh8b1p3FxNjM5AXRGABovwEOBvHSBZv2pl5zZn8o5AXRGAAZewOX2BuQ1a15rWqKOxf5rL5wAOiQA7WUt3NmFp+peao+AJu5fZv+Hu/4eIe0E0CEB0JCVM0zVd+W1TCnauF/6ypMTQKcEoA0FlpnmkvcGlCIQrWfGTfxtx+cE0DEBaL0ATwraUoUm6SdJ/DkBMOR2pbMAZ8N1EmAoQ4YiWuOXuv41JQHF99dnkEdXMS56TmAjh5fl/nx/1xFQTgPjj+74O+pWDSHAHzVeDFLzgxCAjp1+YhF7ejggl8qCu/qGLI2uFicAzgUNcmjVX8CMqm65UAUGocDc8yseH04hEkPjV+3LKE4A2jXPFMLpdZ3bjASm6bPmApMUMq2pTkOdV99dUJwALJajrIWrcams+5K7PoN8wOoJPIUQvtZ6vj43rmt7mmPZuz6beKlVEIDVzGMkVBNgjfpSpBorEqDM9BTCZyeBVzEaJPtWfTBLulZBADV5AT3P/rdZahw/DCFQcvaDBQP1sqR6hNXi8lOyzwbPENhbfWPyq4YAjDLRsfGe/t67om7BsZYH3Wz87fXBka6WCq29W+sJqhoCIOWzVjoJG/Sa+DvDKIU8iGTDMDxfnQiWWJ/evjCZ9ZcVFrOZf5V7VQRQigSsWVVCPLWXtXZfl/FSboC8gefaxy/tn9Xy3r7dVDpaHQHssqWmDLoHtVe3FFRqs5zApv3LEAER5bsQPk4hfJLiGyufyvip3WoJYJOQWp8RI1dK7U7NRj9Nf/bghsYUS/J7inDgCkSweEipnrmjbD+toiTzlKongL2SkiJKFHdb9upxJ4oL97vEJEDdeJ6m6fcWyHmJ8elxkVTvWyY3/iY8AK5yerl8CGTavj2HB3TGoBbiJqN/Nww/p3Dzd9JT7/DjakNzHgB3YF4uLQKR57WsG1/facy+s3Bj9DTTw94nF5Dcq1FOAFzJeLk3CCRaIeAgvRICxcbzvgILL4GMnepaZvksBr8dbMpk3xGoTgAcdfMypwhkCgliUpgTZUMIL99C+PtWeJr+23g0DPMM/i6E/62/T68xfPKZPdL5YlumnQBiauW/sxDIHBKw+tRCodwu/x4TJ4AWtKSRPtIqwbsQvmRIkjWCyGk3q9gD4QRwBVWqbAwFcwOVIfG4OyVifc8BNKEa1+qkhwX38qRNaD+M4+eapOweQE3SuGBfNmFBDcm2IgjXvOXcCaCISvTXaI9EULPhrxroBNCfLRYf8bJseFmPoAXDdwIobgbegc1BGpODXiURXQ+ZtXYZqnsAJbXG274h0GrCsPULTpwA3AirQoC8Ajph9/1Owp+XHXqld+nd4bO497TTkG41SnZMN5dQnAByIe3tQAiUJgQyeOo43SHRmnvPAdwJgIOSl6kGgYUQqD+rl0D/bpFDeL6dI6DzAx3cW0jAOQFUo9reEQ0Cm4ti/gsZpult+DAM6+Gg2yEhi5OEmr6X/NYJoCT63rYjUBgBJ4DCAvDmHYGSCDgBlETf23YECiPgBFBYAN68I1ASASeAkuh7245AYQScAAoLwJt3BEoi4ARQEn1v2xEojIATQGEBePOOQEkEnABKou9tOwKFEXACKCwAb94RKImAE0BJ9L1tR6AwAk4AhQXgzTsCJRFwAiiJvrftCBRGwAmgsAC8eUegJAJOACXR97YdgcIIOAEUFoA37wiURMAJoCT63rYjUBgBJ4DCAvDmHYGSCDgBlETf23YECiPgBFBYAN68I1ASASeAkuh7245AYQScAAoLwJt3BEoi4ARQEn1v2xEojIATQGEBePOOQEkEnABKou9tOwKFEXACKCwAb94RKImAE0BJ9L1tR6AwAk4AhQXgzTsCJRFwAiiJvrftCBRGwAmgsAC8eUegJAJOACXR97YdgcIIOAEUFoA37wiURMAJoCT63rYjUBgBJ4DCAvDmHYGSCPw/uQdbuGkS68gAAAAASUVORK5CYII=;" vertex="1" parent="1">
          <mxGeometry x="709.96" y="50" width="50" height="50" as="geometry" />
        </mxCell>
        <mxCell id="EPdt9mlcSUmJVmbG-_K2-59" value="&lt;font face=&quot;Times New Roman&quot;&gt;(a)&lt;/font&gt;" style="text;strokeColor=none;align=center;fillColor=none;html=1;verticalAlign=middle;whiteSpace=wrap;rounded=0;" vertex="1" parent="1">
          <mxGeometry x="630" y="340" width="60" height="30" as="geometry" />
        </mxCell>
        <mxCell id="EPdt9mlcSUmJVmbG-_K2-60" value="&lt;font face=&quot;Times New Roman&quot;&gt;(b)&lt;/font&gt;" style="text;strokeColor=none;align=center;fillColor=none;html=1;verticalAlign=middle;whiteSpace=wrap;rounded=0;" vertex="1" parent="1">
          <mxGeometry x="782.26" y="340" width="60" height="30" as="geometry" />
        </mxCell>
        <mxCell id="EPdt9mlcSUmJVmbG-_K2-61" value="&lt;div&gt;&lt;font face=&quot;Times New Roman&quot;&gt;&lt;span style=&quot;background-color: initial;&quot;&gt;Fig 2. Comparison of Traditional and Proposed Methods.&amp;nbsp;&lt;/span&gt;&lt;span style=&quot;background-color: initial;&quot;&gt;The traditional method (a) separates temporal and spatial modeling, while our approach (b) integrates them using low-rank matrix factorization for better joint prediction.&lt;/span&gt;&lt;/font&gt;&lt;/div&gt;&lt;div&gt;&lt;br&gt;&lt;/div&gt;" style="text;strokeColor=none;align=left;fillColor=none;html=1;verticalAlign=middle;whiteSpace=wrap;rounded=0;" vertex="1" parent="1">
          <mxGeometry x="590" y="420" width="306.37" height="30" as="geometry" />
        </mxCell>
        <mxCell id="EPdt9mlcSUmJVmbG-_K2-62" value="" style="ellipse;whiteSpace=wrap;html=1;aspect=fixed;fillColor=#f8cecc;strokeColor=#b85450;" vertex="1" parent="1">
          <mxGeometry x="716.3700000000001" y="350" width="40" height="40" as="geometry" />
        </mxCell>
        <mxCell id="EPdt9mlcSUmJVmbG-_K2-63" value="Factorization" style="text;whiteSpace=wrap;fontFamily=Times New Roman;fontSize=10;" vertex="1" parent="1">
          <mxGeometry x="818.8700000000001" y="225" width="60.32" height="35" as="geometry" />
        </mxCell>
        <mxCell id="EPdt9mlcSUmJVmbG-_K2-64" value="" style="shape=stencil(lVjZctswDPwav2LAAyD5nKb/kZk4jadunHHS6+8L1SNFBOX15E2WsSKwWBzSLt29PT+87neR397Pp+/734fH9+dd+rKL8fDyvD8f3u1ql+536e7pdN5/O59+vjxefr8+TJbT1Y/Tr+kJfy44ppgmUOS/lxslUi3/73y92B8PLyv7RDl29pqphuv2haR/vgTSeN0+RMrSAVImAQ6FQqF2ALvD6TogmgPcn0BFgL36EJiYAUORuHT2lQpgKFVPaRQSvQ7IQrV3KNeZg02AJOLQJ5lJAadSSXpAtTyCEzRSah2gKTVAkqmmBA9g4JJWSo7VBIVakle2nRkBraXOnCy0RpiHyYE+hpiJgZKMxOikauUETmjBJy4wBRB0s+f1QQehCFxqQtonzuTOINOtUM09S0sL2QY0atp3AIEsBV7qa4UoQEzTEb1PopQyBJTmAQ3UqAGk70pSKCFe26y1FUDRCZXacIIibZhcB4AglqqvUQMExJJ1lYElRamus3RWAMZBe4BQwkGHvkbFGgl2KYkHRMyS9iVn3bOCgTUlbgBAlkwacQBgLcnoEqpRk7cOQTdcQNEDKpDGdo1m7FNzmVOsvkZVPKBggLouUGamrwHSUKOCE8FjUaN2XOfNYn0CYsl2gTLEgAFxYOmGXEPwANi/Pw0Q3/BzwI0p+ZFiW2NBtAYPCIuT24N3yIONxQIKosqwkylcKivPA2cJOlMGQZdMza0nVg9oY7IC6ntlxQWk4neBjym2DQh+oqzKfHtPtKnZT4jaYOZs+c99ENPrBuDVWExOfTwvgtvbtHr1mZgaGCmJff8OAfYZU0Lsg05wZtnfrlUqXMlMy269tzsNiDXkWTiLQ4pXh2GIWgWiFw6vPC2w1w/lWQROxDB7u9grlJ2JKHt7tNmHeeKv7FFtsl/FJnvQU9m/y5h9gva+CCxekGD2gjM+C4iX576wskfrsBW5s89QD8PsN/sbz++bacErFXs9mz3m83PfMG7b28XHB5Onw/F4+d6y/t9/YLFbl48z6f4f);lineShape=1;fillColor=#f8cecc;strokeColor=#b85450;" vertex="1" parent="1">
          <mxGeometry x="723.5500000000001" y="357" width="22.82" height="26" as="geometry" />
        </mxCell>
        <mxCell id="EPdt9mlcSUmJVmbG-_K2-65" value="" style="shape=stencil(lZbdUttADIWfxrdnpNX+XlN4D2YIjYc0YUKg5e3R1mOIlkSd3vnv88pHR8c7yc3L9v55MwV6OR0PT5vf88NpO8mPKYR5v90c55MeTXI7yc3j4bj5eTy87h+W8+f7/mQ/+nV462/4s3CNUEKnAr0vV2JCan+v3C3Abt6fAxmlGCAJWnWAhsoGyIKaXSCJAUoEeyUltGyAqis4QG2IFmiMFh1AVbIltYLE14FCyFYlJgLRdSITJNolGtiRKRGq7ZzqQE4jooBtI2oFO4BUkAVK84EMsrrmBhIHKGMjUkV1VIphXCGqW5zO6W1pFggITklaQK4G0CKzs0KuaMkCGSE53lARrZlU6OB8dG+TXUFbGfyBoGFG6V8zykPjCLFcB87c/OkNWoPh8hI6MBbQofJa3UdysGtbX3FZJh36YUg1GJySeqzYkr6i53KrBeXbjFYnBjQa6wBofHozmhCHoVZZHTN1QP4HkDima09Dx0whrm7+BBKyE0yc1rQ+i43ofHRBtW4tDHHaEMYwzrym7cXn1ar2AxKvKXLteWuLSODg1ZNsYgRfUc0TWz831xQcR4GYkZweBxmBBHEmRz0x/Bm0AY6garpBofHfpgdfO47HebdbNizn98cdil5adjdy+wE=);lineShape=1;strokeColor=default;" vertex="1" parent="1">
          <mxGeometry x="1233.0532159955194" y="436.1888345918992" width="2.51462274023811" height="2.5223367616044925" as="geometry" />
        </mxCell>
        <mxCell id="EPdt9mlcSUmJVmbG-_K2-67" value="&lt;font face=&quot;Times New Roman&quot;&gt;Spatio-temporal Feature Fusion&lt;/font&gt;" style="rounded=0;whiteSpace=wrap;html=1;fillColor=#DAE8FC;strokeColor=#66B2FF;strokeWidth=2;opacity=60;" vertex="1" parent="1">
          <mxGeometry x="77.18" y="247.75" width="110" height="36" as="geometry" />
        </mxCell>
        <mxCell id="EPdt9mlcSUmJVmbG-_K2-70" value="&lt;font face=&quot;Times New Roman&quot;&gt;Residual Fusion&lt;/font&gt;" style="rounded=0;whiteSpace=wrap;html=1;fillColor=#d5e8d4;strokeColor=#82B366;strokeWidth=2;opacity=50;" vertex="1" parent="1">
          <mxGeometry x="227.18" y="264" width="112.82" height="18.75" as="geometry" />
        </mxCell>
      </root>
    </mxGraphModel>
  </diagram>
</mxfile>
